<svg xmlns="http://www.w3.org/2000/svg" id="Layer_1" x="0" y="0" version="1.1" viewBox="0 0 375.3 133" xml:space="preserve">
  <defs/>
  <style>
    .st0{fill:#fff}
  </style>
  <path d="M252.1 13.7l-4.4-4.4c-1.1-1.1-1.1-2.9 0-4l4.4-4.4c1.1-1.1 2.9-1.1 4 0l4.4 4.4c1.1 1.1 1.1 2.9 0 4l-4.4 4.4c-1.1 1.1-2.9 1.1-4 0zM96.7 103.9c-4.9 0-9.4-1.9-12.9-5.3L65.2 80c-1.3-1.3-3.6-1.3-4.9 0L41.7 98.6c-3.4 3.4-8 5.3-12.9 5.3h-3.7l23.5 23.5c7.4 7.4 19.3 7.4 26.6 0l23.6-23.6h-2.1v.1zM28.8 38.1c4.9 0 9.4 1.9 12.9 5.3l18.7 18.7c1.3 1.3 3.5 1.3 4.9 0l18.6-18.6c3.4-3.4 8-5.3 12.9-5.3H99L75.3 14.6c-7.4-7.4-19.3-7.4-26.6 0L25.1 38.1h3.7z" class="st0"/>
  <path d="M118.4 57.7l-14.3-14.3c-.3.1-.7.2-1 .2h-6.5c-3.4 0-6.6 1.4-9 3.7L69.1 66c-1.7 1.7-4 2.6-6.3 2.6s-4.6-.9-6.3-2.6L37.8 47.3c-2.4-2.4-5.7-3.7-9-3.7h-8c-.3 0-.7-.1-1-.2L5.5 57.7c-7.4 7.4-7.4 19.3 0 26.6l14.3 14.3c.3-.1.6-.2 1-.2h8c3.4 0 6.6-1.4 9-3.7L56.5 76c3.4-3.4 9.3-3.4 12.6 0l18.6 18.6c2.4 2.4 5.7 3.7 9 3.7h6.5c.4 0 .7.1 1 .2l14.3-14.3c7.3-7.2 7.3-19.1-.1-26.5z" class="st0"/>
  <g>
    <path d="M154.4 126.6c-1.3 0-2.3-1.1-2.3-2.3V47.9c0-15.3 12.5-27.8 27.8-27.8h22.5c15.3 0 27.7 12.5 27.7 27.7V64c0 15.3-12.5 27.8-27.8 27.8h-31.8c-1.3 0-2.3-1.1-2.3-2.3s1.1-2.3 2.3-2.3h31.8c12.7 0 23.1-10.3 23.1-23.1V47.9c0-12.7-10.3-23-23-23h-22.5c-12.7 0-23.1 10.3-23.1 23.1v76.3c0 1.2-1.1 2.3-2.4 2.3zm99.8-34.3c-1.3 0-2.3-1.1-2.3-2.3V33c0-4.5-3.6-8.1-8.1-8.1H234c-1.3 0-2.3-1.1-2.3-2.3s1.1-2.3 2.3-2.3h9.8c7 0 12.8 5.7 12.8 12.8v57c-.1 1.1-1.1 2.2-2.4 2.2zM282.6 91.8h-9.7c-1.3 0-2.3-1.1-2.3-2.3s1.1-2.3 2.3-2.3h9.7c4.4 0 8.5-1.7 11.6-4.8l22.7-22.7c1.9-1.9 4.3-2.9 7-2.9s5.1 1 7 2.9l22.6 22.6c3.1 3.1 7.2 4.8 11.6 4.8h7.9c1.3 0 2.3 1.1 2.3 2.3s-1.1 2.3-2.3 2.3h-7.9c-5.6 0-11-2.2-15-6.2l-22.6-22.6c-1-1-2.3-1.5-3.7-1.5-1.4 0-2.7.5-3.7 1.5l-22.7 22.7c-3.8 4-9.1 6.2-14.8 6.2zm41.3-36.6c-2.6 0-5.1-1-7-2.9l-22.7-22.7c-3.1-3.1-7.2-4.8-11.6-4.8h-9.7c-1.3 0-2.3-1.1-2.3-2.3s1.1-2.3 2.3-2.3h9.7c5.6 0 11 2.2 15 6.2L320.2 49c1 1 2.3 1.5 3.7 1.5 1.4 0 2.7-.5 3.7-1.5l22.6-22.6c4-4 9.3-6.2 15-6.2h7.9c1.3 0 2.3 1.1 2.3 2.3s-1.1 2.3-2.3 2.3h-7.9c-4.4 0-8.5 1.7-11.6 4.8L331 52.2c-2 1.9-4.5 3-7.1 3z" class="st0"/>
    <path d="M173.8 117.7c-1.1 0-2.3.3-3.5.5v4.6c.8.3 1.8.5 2.7.5 2.3 0 3.4-.8 3.4-2.8.1-1.9-.8-2.8-2.6-2.8zm-4.3 8.7v-9.2h.6l.1.4c1.1-.3 2.6-.6 3.6-.6.9 0 1.7.1 2.4.7.8.7 1.1 1.7 1.1 2.9s-.4 2.3-1.5 3c-.8.4-1.8.6-2.7.6-.9 0-1.9-.1-2.8-.4v2.7h-.8v-.1zM183.2 117.7c-2.3 0-3.4.7-3.4 2.8 0 2 1 2.9 3.4 2.9 2.3 0 3.4-.7 3.4-2.8-.1-2-1.1-2.9-3.4-2.9zm3 5.7c-.8.6-1.8.7-3 .7s-2.3-.2-3-.7c-.9-.6-1.2-1.6-1.2-2.8 0-1.2.3-2.2 1.2-2.8.8-.5 1.8-.7 3-.7s2.2.2 3 .7c.9.6 1.2 1.6 1.2 2.8 0 1.2-.4 2.2-1.2 2.8zm0 0zM197.2 123.9l-2.6-5.6h-.1l-2.5 5.6h-.7l-2.8-6.7h.9l2.3 5.6 2.5-5.6h.8l2.5 5.6h.1l2.2-5.6h.9l-2.8 6.7h-.7zM205.7 117.7c-2.2 0-2.9 1-3 2.3h6c0-1.5-.8-2.3-3-2.3zm0 6.4c-1.3 0-2.1-.2-2.8-.7-.8-.7-1.1-1.7-1.1-2.8 0-1.1.4-2.2 1.3-2.9.7-.5 1.7-.7 2.6-.7.9 0 1.9.1 2.7.7 1 .7 1.2 1.8 1.2 3.1h-6.9c0 1.4.5 2.6 3.1 2.6 1.2 0 2.4-.2 3.5-.4v.7c-1.2.2-2.4.4-3.6.4zM211.8 123.9v-6.7h.6l.1.4c1.4-.4 2.1-.6 3.3-.6h.1v.7h-.2c-1.1 0-1.7.1-3.2.5v5.6h-.7v.1zM220.5 117.7c-2.2 0-2.9 1-3 2.3h6c0-1.5-.8-2.3-3-2.3zm0 6.4c-1.3 0-2.1-.2-2.8-.7-.8-.7-1.1-1.7-1.1-2.8 0-1.1.4-2.2 1.3-2.9.7-.5 1.7-.7 2.6-.7.9 0 1.9.1 2.7.7 1 .7 1.2 1.8 1.2 3.1h-6.9c0 1.4.5 2.6 3.1 2.6 1.2 0 2.4-.2 3.5-.4v.7c-1.2.2-2.4.4-3.6.4zM233 118.1c-.8-.3-1.8-.5-2.7-.5-2.3 0-3.4.8-3.4 2.8 0 1.9.9 2.8 2.7 2.8 1.1 0 2.3-.3 3.5-.5v-4.6h-.1zm.1 5.8l-.1-.4c-1.1.3-2.6.6-3.6.6-.9 0-1.7-.1-2.4-.7-.8-.7-1.1-1.7-1.1-2.9s.4-2.3 1.5-2.9c.8-.4 1.8-.6 2.7-.6.9 0 1.8.2 2.8.4v-3.1h.8v9.6h-.6zM245.3 117.7c-1.1 0-2.3.3-3.5.5v4.6c.9.3 1.8.5 2.7.5 2.3 0 3.4-.8 3.4-2.8 0-1.9-.9-2.8-2.6-2.8zm2 5.8c-.8.4-1.8.6-2.7.6-1 0-2-.2-3-.5v.3h-.6v-9.6h.8v3.2c1.1-.2 2.5-.6 3.6-.6.9 0 1.7.1 2.4.7.8.7 1.1 1.7 1.1 2.9-.1 1.2-.5 2.4-1.6 3zM249.8 126.5v-.7c.4 0 .7.1 1 .1 1 0 1.6-.3 2.1-1.4l.3-.5-3.5-6.7h.9l3 5.8h.1l2.9-5.8h.9l-3.8 7.6c-.7 1.4-1.4 1.8-2.8 1.8-.4-.2-.7-.2-1.1-.2zM268.2 120.1h-2.6v2.4h2.6c1.8 0 2.5-.2 2.5-1.2 0-1.1-.9-1.2-2.5-1.2zm-.4-3.9h-2.1v2.4h2.1c1.8 0 2.5-.2 2.5-1.2-.1-1.1-.9-1.2-2.5-1.2zm4 7.1c-1 .6-2.1.6-4.2.6h-4v-9.1h3.9c1.8 0 2.9 0 3.9.6.7.4.9 1 .9 1.8 0 1-.4 1.6-1.4 2v.1c1.2.3 1.9.9 1.9 2.2 0 .8-.3 1.4-1 1.8zM280.7 121.1c-.8-.1-1.6-.1-2.4-.1-1.4 0-1.9.3-1.9.9 0 .6.4.9 1.5.9.9 0 1.9-.2 2.8-.4v-1.3zm.4 2.8l-.1-.4c-1.1.3-2.5.6-3.7.6-.7 0-1.5-.1-2-.5s-.7-.9-.7-1.6c0-.8.3-1.5 1.1-1.8.7-.3 1.7-.4 2.5-.4.7 0 1.7 0 2.4.1v-.1c0-1.1-.7-1.4-2.6-1.4-.7 0-1.6 0-2.5.1v-1.4c.9-.1 2-.1 2.9-.1 1.2 0 2.4.1 3.1.6.8.5.9 1.3.9 2.3v4h-1.3zM291.4 123.9v-3.7c0-1.2-.6-1.7-1.7-1.7-.8 0-1.9.2-2.7.4v5h-2v-6.7h1.5l.1.4c1.2-.3 2.5-.6 3.6-.6.8 0 1.7.1 2.3.7.5.5.7 1.1.7 2.1v4.1h-1.8zM298.6 124.1c-.9 0-1.8-.1-2.5-.7-.8-.7-1.1-1.7-1.1-2.9 0-1.1.3-2.2 1.4-2.9.8-.5 1.9-.7 3-.7.8 0 1.5.1 2.4.1v1.4c-.7-.1-1.5-.1-2.1-.1-1.8 0-2.6.6-2.6 2.1s.6 2.1 2.1 2.1c.9 0 1.9-.2 2.8-.3v1.4c-1.2.3-2.3.5-3.4.5zM307.4 118.4c-1.8 0-2.6.6-2.6 2.1s.8 2.2 2.6 2.2 2.5-.5 2.5-2.1c.1-1.5-.7-2.2-2.5-2.2zm3.2 5c-.8.6-1.9.7-3.2.7-1.3 0-2.4-.2-3.2-.7-.9-.6-1.3-1.6-1.3-2.8 0-1.2.3-2.2 1.3-2.9.8-.5 1.9-.7 3.2-.7 1.3 0 2.4.2 3.2.7.9.6 1.3 1.6 1.3 2.8 0 1.2-.3 2.3-1.3 2.9zm0 0zM322.7 124.1c-1.1 0-2.4-.2-3.3-.9-1.1-.9-1.4-2.3-1.4-3.8 0-1.3.4-2.9 1.9-3.9 1.1-.7 2.5-.9 3.9-.9 1 0 2.1.1 3.2.2v1.6c-1-.1-2.2-.1-3.1-.1-2.6 0-3.7 1-3.7 3.1s1 3.1 2.9 3.1c1.3 0 2.7-.3 4.1-.5v1.6c-1.5.2-3 .5-4.5.5zM332.6 118.2c-1.6 0-2.2.6-2.3 1.6h4.5c0-1.1-.6-1.6-2.2-1.6zm-.2 5.9c-1.1 0-2.1-.1-2.9-.7-.8-.7-1.1-1.7-1.1-2.8 0-1 .3-2.2 1.3-2.8.8-.6 1.9-.7 2.9-.7s2.1.1 2.9.7c1.1.8 1.2 1.9 1.2 3.3h-6.4c0 1 .6 1.7 2.5 1.7 1.2 0 2.5-.2 3.6-.3v1.3c-1.3.1-2.7.3-4 .3zM345.1 123.9v-3.7c0-1.2-.6-1.7-1.7-1.7-.8 0-1.9.2-2.7.4v5h-1.9v-6.7h1.5l.1.4c1.2-.3 2.5-.6 3.6-.6.8 0 1.7.1 2.3.7.5.5.7 1.1.7 2.1v4.1h-1.9zM352.3 124.1c-.9 0-1.7-.3-2.2-1-.3-.5-.5-1.1-.5-2v-2.5h-1.4v-1.4h1.4l.2-2h1.7v2h2.7v1.4h-2.7v2.2c0 .5 0 1 .2 1.3.2.5.6.6 1.2.6.4 0 1-.1 1.3-.1v1.3c-.5.1-1.3.2-1.9.2zM356 123.9v-6.7h1.5l.1.4c1.2-.3 2.2-.6 3.3-.6h.2v1.6h-.7c-.9 0-1.6.1-2.6.3v5H356zM368 121.1c-.8-.1-1.6-.1-2.4-.1-1.4 0-1.9.3-1.9.9 0 .6.4.9 1.5.9.9 0 1.9-.2 2.8-.4v-1.3zm.4 2.8l-.1-.4c-1.1.3-2.5.6-3.7.6-.7 0-1.5-.1-2-.5s-.7-.9-.7-1.6c0-.8.3-1.5 1.1-1.8.7-.3 1.7-.4 2.5-.4.7 0 1.7 0 2.4.1v-.1c0-1.1-.7-1.4-2.6-1.4-.7 0-1.6 0-2.5.1v-1.4c.9-.1 2-.1 2.9-.1 1.2 0 2.4.1 3.1.6.8.5.9 1.3.9 2.3v4h-1.3zM372.3 114.3h1.9v9.6h-1.9v-9.6z" class="st0"/>
  </g>
</svg>
