<?xml version="1.0" encoding="utf-8"?>
<!-- Generator: Adobe Illustrator 24.0.1, SVG Export Plug-In . SVG Version: 6.00 Build 0)  -->
<svg version="1.1" id="Layer_1" xmlns="http://www.w3.org/2000/svg" xmlns:xlink="http://www.w3.org/1999/xlink" x="0px" y="0px"
	 viewBox="0 0 512 512" style="enable-background:new 0 0 512 512;" xml:space="preserve">
<style type="text/css">
	.st0{fill:#868686;}
</style>
<g>
	<path class="st0" d="M204.5,459.6v51.9L192,501.3c-1.9-1.6-48-39-94.8-92.7C32.7,334.6,0,268.2,0,211.2v-5.7C0,92.7,91.7,1,204.5,1
		S409,92.7,409,205.5v5.7c0,4.8-0.3,9.7-0.7,14.6l-40-36.5c-8.2-83.2-78.5-148.3-163.8-148.3c-90.8,0-164.6,73.8-164.6,164.6v5.7
		C39.9,307.5,164.1,424.2,204.5,459.6z M327.2,430.9h59.9v-59.9h-59.9V430.9z M204.5,120.7c46.8,0,84.8,38,84.8,84.8
		s-38,84.8-84.8,84.8s-84.8-38-84.8-84.8S157.7,120.7,204.5,120.7z M204.5,160.6c-24.8,0-44.9,20.1-44.9,44.9
		c0,24.8,20.1,44.9,44.9,44.9c24.8,0,44.9-20.1,44.9-44.9C249.4,180.7,229.3,160.6,204.5,160.6z M485.1,403.8l-11.2-10.2v64.1
		c0,29.8-24.3,54.1-54.1,54.1H293.5c-29.8,0-54.1-24.3-54.1-54.1v-64.1l-11.2,10.2l-26.9-29.5l155.4-141.7L512,374.4L485.1,403.8z
		 M434,357.2l-77.4-70.6l-77.4,70.6v100.5c0,7.8,6.4,14.2,14.2,14.2h126.3c7.8,0,14.2-6.4,14.2-14.2V357.2z"/>
</g>
</svg>
