<?xml version="1.0" encoding="utf-8"?>
<!-- Generator: Adobe Illustrator 24.0.1, SVG Export Plug-In . SVG Version: 6.00 Build 0)  -->
<svg version="1.1" id="Layer_1" xmlns:svgjs="http://svgjs.com/svgjs"
	 xmlns="http://www.w3.org/2000/svg" xmlns:xlink="http://www.w3.org/1999/xlink" x="0px" y="0px" viewBox="0 0 512 512"
	 style="enable-background:new 0 0 512 512;" xml:space="preserve">
<style type="text/css">
	.st0{fill:#FFFFFF;}
	.st1{fill:#111111;}
</style>
<path class="st0" d="M256,400L256,400c-8.8,0-16,7.2-16,16s7.2,16,16,16s16-7.2,16-16S264.9,400,256,400z"/>
<path class="st0" d="M261.8,96h-3.6c-45.3,0-82.2,36.9-82.2,82.2v5.8c0,8.8,7.2,16,16,16s16-7.2,16-16v-5.8
	c0-27.7,22.5-50.2,50.2-50.2h3.6c27.7,0,50.2,22.5,50.2,50.2c0,25.3-9.8,49-27.7,66.9C255.7,273.6,240,311.6,240,352
	c0,8.8,7.2,16,16,16s16-7.2,16-16c0-31.8,12.4-61.8,34.9-84.3c23.9-23.9,37.1-55.7,37.1-89.5C344,132.9,307.1,96,261.8,96z"/>
<path class="st1" d="M437,75C388.7,26.6,324.4,0,256,0S123.3,26.6,75,75C26.6,123.3,0,187.6,0,256s26.6,132.7,75,181
	s112.6,75,181,75s132.7-26.6,181-75c48.4-48.4,75-112.6,75-181S485.4,123.3,437,75z M256,432c-8.8,0-16-7.2-16-16s7.2-16,16-16h0
	c8.8,0,16,7.2,16,16S264.9,432,256,432z M306.9,267.7C284.4,290.2,272,320.2,272,352c0,8.8-7.2,16-16,16s-16-7.2-16-16
	c0-40.4,15.7-78.4,44.3-106.9c17.9-17.9,27.7-41.6,27.7-66.9c0-27.7-22.5-50.2-50.2-50.2h-3.6c-27.7,0-50.2,22.5-50.2,50.2v5.8
	c0,8.8-7.2,16-16,16s-16-7.2-16-16v-5.8c0-45.3,36.9-82.2,82.2-82.2h3.6c45.3,0,82.2,36.9,82.2,82.2
	C344,212,330.8,243.8,306.9,267.7z"/>
</svg>
