<?xml version="1.0" encoding="utf-8"?>
<!-- Generator: Adobe Illustrator 24.0.1, SVG Export Plug-In . SVG Version: 6.00 Build 0)  -->
<svg version="1.1" id="Layer_1" xmlns="http://www.w3.org/2000/svg" xmlns:xlink="http://www.w3.org/1999/xlink" x="0px" y="0px"
	 viewBox="0 0 512 367.3" style="enable-background:new 0 0 512 367.3;" xml:space="preserve">
<style type="text/css">
	.st0{fill:#FFFFFF;}
</style>
<g>
	<path class="st0" d="M83.5,66.8c-9.2,0-16.7,7.5-16.7,16.7v200.3c0,9.2,7.5,16.7,16.7,16.7s16.7-7.5,16.7-16.7V83.5
		C100.2,74.3,92.7,66.8,83.5,66.8z M217,66.8c-9.2,0-16.7,7.5-16.7,16.7V217c0,9.2,7.5,16.7,16.7,16.7c9.2,0,16.7-7.5,16.7-16.7
		V83.5C233.7,74.3,226.3,66.8,217,66.8z M361.7,66.8c-9.2,0-16.7,7.5-16.7,16.7V217c0,9.2,7.5,16.7,16.7,16.7s16.7-7.5,16.7-16.7
		V83.5C378.4,74.3,371,66.8,361.7,66.8z M428.5,66.8c-9.2,0-16.7,7.5-16.7,16.7v200.3c0,9.2,7.5,16.7,16.7,16.7s16.7-7.5,16.7-16.7
		V83.5C445.2,74.3,437.7,66.8,428.5,66.8L428.5,66.8z"/>
	<circle class="st0" cx="217" cy="283.8" r="16.7"/>
	<path class="st0" d="M283.8,66.8c-9.2,0-16.7,7.5-16.7,16.7V217c0,9.2,7.5,16.7,16.7,16.7c9.2,0,16.7-7.5,16.7-16.7V83.5
		C300.5,74.3,293,66.8,283.8,66.8z"/>
	<circle class="st0" cx="283.8" cy="283.8" r="16.7"/>
	<path class="st0" d="M150.3,66.8c-9.2,0-16.7,7.5-16.7,16.7V217c0,9.2,7.5,16.7,16.7,16.7S167,226.3,167,217V83.5
		C167,74.3,159.5,66.8,150.3,66.8z"/>
	<circle class="st0" cx="150.3" cy="283.8" r="16.7"/>
	<circle class="st0" cx="361.7" cy="283.8" r="16.7"/>
	<path class="st0" d="M461.9,0H50.1C22.5,0,0,22.5,0,50.1v267.1c0,27.6,22.5,50.1,50.1,50.1h411.8c27.6,0,50.1-22.5,50.1-50.1V50.1
		C512,22.5,489.5,0,461.9,0z M478.6,317.2c0,9.2-7.5,16.7-16.7,16.7H50.1c-9.2,0-16.7-7.5-16.7-16.7V50.1c0-9.2,7.5-16.7,16.7-16.7
		h411.8c9.2,0,16.7,7.5,16.7,16.7V317.2z"/>
</g>
</svg>
