<?xml version="1.0" encoding="utf-8"?>
<!-- Generator: Adobe Illustrator 24.0.1, SVG Export Plug-In . SVG Version: 6.00 Build 0)  -->
<svg version="1.1" id="Layer_1" xmlns="http://www.w3.org/2000/svg" xmlns:xlink="http://www.w3.org/1999/xlink" x="0px" y="0px"
	 viewBox="0 0 512 512" style="enable-background:new 0 0 512 512;" xml:space="preserve">
<style type="text/css">
	.st0{fill:#868686;}
</style>
<g>
	<path class="st0" d="M256,133.6c-67.5,0-122.4,54.9-122.4,122.4S188.5,378.4,256,378.4S378.4,323.5,378.4,256
		S323.5,133.6,256,133.6z M256,347.8c-50.6,0-91.8-41.2-91.8-91.8s41.2-91.8,91.8-91.8s91.8,41.2,91.8,91.8S306.6,347.8,256,347.8z"
		/>
	<path class="st0" d="M500,197.7l-39.4-8.6c-3.4-10.5-7.7-20.7-12.7-30.5l21.8-33.9c3.9-6.1,3-14-2.1-19.1l-61.3-61.3
		c-5.1-5.1-13-5.9-19.1-2.1l-33.9,21.8c-9.8-5-20.1-9.2-30.5-12.7L314.3,12c-1.5-7-7.8-12-14.9-12h-86.7c-7.2,0-13.4,5-14.9,12
		l-8.6,39.4c-10.5,3.4-20.7,7.7-30.5,12.7l-33.9-21.8c-6.1-3.9-14-3-19.1,2.1l-61.3,61.3c-5.1,5.1-5.9,13-2.1,19.1l21.8,33.9
		c-5,9.8-9.2,20.1-12.7,30.5L12,197.7c-7,1.5-12,7.8-12,14.9v86.7c0,7.2,5,13.4,12,14.9l39.4,8.6c3.4,10.5,7.7,20.7,12.7,30.5
		l-21.8,33.9c-3.9,6.1-3,14,2.1,19.1l61.3,61.3c5.1,5.1,13,5.9,19.1,2.1l33.9-21.8c9.8,5,20.1,9.2,30.5,12.7l8.6,39.4
		c1.5,7,7.8,12,14.9,12h86.7c7.2,0,13.4-5,14.9-12l8.6-39.4c10.5-3.4,20.7-7.7,30.5-12.7l33.9,21.8c6.1,3.9,14,3,19.1-2.1l61.3-61.3
		c5.1-5.1,5.9-13,2.1-19.1l-21.8-33.9c5-9.8,9.2-20.1,12.7-30.5l39.4-8.6c7-1.5,12-7.8,12-14.9v-86.7C512,205.5,507,199.2,500,197.7
		z M481.4,287l-36.1,7.8c-5.5,1.2-10,5.4-11.5,10.8c-4,14.2-9.7,28-16.9,40.9c-2.8,4.9-2.6,11,0.5,15.8l20,31.1l-43.9,43.9l-31.1-20
		c-4.8-3.1-10.9-3.2-15.8-0.5c-12.9,7.3-26.7,13-40.9,16.9c-5.5,1.5-9.6,5.9-10.8,11.5l-7.8,36.1h-62l-7.8-36.1
		c-1.2-5.5-5.4-10-10.8-11.5c-14.2-4-28-9.7-40.9-16.9c-4.9-2.8-11-2.6-15.8,0.5l-31.1,20l-43.9-43.9l20-31.1
		c3.1-4.8,3.2-10.9,0.5-15.8c-7.3-12.9-13-26.7-17-40.9c-1.5-5.5-5.9-9.6-11.5-10.8L30.6,287v-62l36.1-7.8c5.5-1.2,10-5.4,11.5-10.8
		c4-14.2,9.7-28,16.9-40.9c2.8-4.9,2.6-11-0.5-15.8l-20-31.1l43.9-43.9l31.1,20c4.8,3.1,10.9,3.2,15.8,0.5
		c12.9-7.3,26.7-13,40.9-16.9c5.5-1.5,9.6-5.9,10.8-11.5l7.8-36.1h62l7.8,36.1c1.2,5.5,5.4,10,10.8,11.5c14.2,4,28,9.7,40.9,16.9
		c4.9,2.8,11,2.6,15.8-0.5l31.1-20l43.9,43.9l-20,31.1c-3.1,4.8-3.2,10.9-0.5,15.8c7.3,12.9,13,26.7,17,40.9
		c1.5,5.5,5.9,9.6,11.5,10.8l36.1,7.8V287z"/>
</g>
</svg>
