<?xml version="1.0" encoding="utf-8"?>
<!-- Generator: Adobe Illustrator 24.0.1, SVG Export Plug-In . SVG Version: 6.00 Build 0)  -->
<svg version="1.1" id="Capa_1" xmlns="http://www.w3.org/2000/svg" xmlns:xlink="http://www.w3.org/1999/xlink" x="0px" y="0px"
	 viewBox="0 0 331.5 86.4" style="enable-background:new 0 0 331.5 86.4;" xml:space="preserve">
<style type="text/css">
	.st0{fill:none;}
	.st1{fill:#FFFFFF;}
</style>
<path class="st0" d="M276.2,54c-2,0-3.5,0.7-4.6,2.1c-1.1,1.4-1.6,3.4-1.6,6c0,2.6,0.5,4.6,1.6,6c1.1,1.4,2.6,2.1,4.6,2.1
	c2,0,3.5-0.7,4.6-2.1c1.1-1.4,1.6-3.4,1.6-6c0-2.6-0.5-4.6-1.6-6C279.7,54.7,278.2,54,276.2,54z"/>
<path class="st0" d="M265.7,25.5l-1.6,0.3c-1.5,0.3-2.5,0.6-3.1,0.9c-1.1,0.6-1.6,1.6-1.6,2.9c0,1.2,0.3,2,1,2.5
	c0.7,0.5,1.5,0.8,2.4,0.8c1.5,0,2.9-0.4,4.1-1.3c1.3-0.9,1.9-2.4,2-4.7v-2.5c-0.4,0.3-0.9,0.5-1.3,0.7
	C267,25.2,266.4,25.4,265.7,25.5z"/>
<path class="st0" d="M223.2,63.6l-1.6,0.3c-1.5,0.2-2.5,0.6-3.1,0.9c-1.1,0.6-1.6,1.6-1.6,2.9c0,1.2,0.3,2,1,2.5
	c0.7,0.5,1.5,0.8,2.4,0.8c1.5,0,2.9-0.4,4.1-1.3c1.3-0.9,1.9-2.4,1.9-4.7v-2.5c-0.4,0.3-0.9,0.5-1.3,0.7
	C224.6,63.3,224,63.5,223.2,63.6z"/>
<path class="st0" d="M195.6,54.2c-1.8,0-3.2,0.7-4.2,2.1c-0.9,1.3-1.4,3.2-1.4,5.9c0,2.5,0.5,4.4,1.5,5.7c1,1.4,2.4,2.1,4.3,2.1
	c1.7,0,3.1-0.7,4.1-2.1c1-1.4,1.5-3.3,1.5-5.7c0-2.6-0.5-4.6-1.5-5.9C198.9,54.9,197.5,54.2,195.6,54.2z"/>
<path class="st0" d="M251.9,55.9c-0.9-1.2-2.1-1.8-3.7-1.8c-2.2,0-3.7,0.8-4.5,2.5c-0.8,1.7-1.2,3.5-1.2,5.7c0,4.6,1.3,7.1,3.9,7.6
	c2.6,0.5,4.6-0.1,5.8-1.8c0.6-0.7,1-1.9,1.3-3.4c0.3-1.5,0.3-3.1,0.1-4.6C253.3,58.5,252.7,57.1,251.9,55.9z"/>
<path class="st0" d="M293.9,17.7c-1-0.8-2.1-1.2-3.4-1.2c-2,0-3.4,0.8-4.4,2.3c-0.9,1.5-1.4,3.4-1.4,5.6c0,2.4,0.5,4.5,1.4,5.9
	c0.9,1.4,2.4,2.2,4.3,2.2c1.9,0,3.4-0.7,4.4-2.1c1-1.4,1.5-3.3,1.5-5.5C296.3,21.5,295.5,19,293.9,17.7z"/>
<path class="st0" d="M318.3,16c-2,0-3.5,0.7-4.6,2.1c-1.1,1.4-1.6,3.4-1.6,6c0,2.6,0.5,4.6,1.6,6c1.1,1.4,2.6,2.1,4.6,2.1
	c2,0,3.5-0.7,4.6-2.1c1.1-1.4,1.6-3.4,1.6-6c0-2.6-0.5-4.6-1.6-6C321.8,16.7,320.2,16,318.3,16z"/>
<path class="st0" d="M197.1,17.5c-1.1-0.9-2.4-1.4-4-1.4c-1.7,0-3.1,0.5-4.1,1.5c-1,1-1.6,2.3-1.8,4h11.7
	C198.7,19.8,198.1,18.4,197.1,17.5z"/>
<path class="st1" d="M60.7,0C27.2,0,0,17.8,0,39.7c0,0.6,0,2.1,0,2.3c0,23.2,23.8,42,60.7,42c37.2,0,60.7-18.8,60.7-42
	c0-0.8,0-1.3,0-2.3C121.4,17.8,94.2,0,60.7,0z M119.1,37.8C119,37.8,119,37.8,119.1,37.8c0,0.6,0,1.2,0,1.9
	C119.1,60.3,93,77,60.7,77C28.5,77,2.4,60.3,2.4,39.7c0-0.8,0.1-1.7,0.1-2.5c0,0,0,0,0,0c0.1-0.8,0.2-1.7,0.4-2.5c0,0,0,0,0,0
	c0.3-1.2,0.6-2.5,1.1-3.7c0,0,0,0,0,0c0.2-0.4,0.3-0.9,0.5-1.3c0,0,0,0,0-0.1c0.6-1.3,1.3-2.6,2-3.9c0,0,0,0,0,0
	c0.3-0.4,0.5-0.8,0.8-1.2c0,0,0,0,0-0.1c1.1-1.6,2.5-3.2,4-4.7c0,0,0,0,0,0c1.2-1.2,2.4-2.3,3.8-3.4c0,0,0,0-0.1,0
	c0.7-0.5,1.4-1.1,2.1-1.6c0,0,0,0,0.1,0C28,7.1,43.5,2.3,60.7,2.3c17.8,0,33.7,5.1,44.4,13.1c0,0,0,0,0,0c0.7,0.5,1.4,1.1,2.1,1.6
	c0,0,0,0,0,0c1,0.8,1.9,1.7,2.8,2.5c0.1,0.1,0.1,0.1,0.2,0.2c0.3,0.3,0.6,0.7,0.9,1c0.1,0.1,0.1,0.2,0.2,0.2
	c0.6,0.6,1.1,1.3,1.6,1.9c0.1,0.1,0.1,0.1,0.2,0.2c0.2,0.3,0.5,0.6,0.7,0.9c0.1,0.2,0.2,0.3,0.4,0.5c0.2,0.3,0.4,0.6,0.6,0.9
	c0.2,0.2,0.3,0.5,0.4,0.7c0.3,0.4,0.5,0.8,0.7,1.3c0.1,0.3,0.3,0.5,0.4,0.8c0.1,0.2,0.2,0.5,0.4,0.7c0.1,0.3,0.3,0.6,0.4,0.9
	c0.1,0.2,0.2,0.4,0.3,0.6c0.2,0.5,0.4,1,0.5,1.5c0.1,0.2,0.1,0.4,0.2,0.6c0.1,0.3,0.2,0.7,0.3,1c0.1,0.2,0.1,0.4,0.2,0.6
	c0.1,0.4,0.2,0.7,0.2,1.1c0,0,0,0,0,0C118.9,36.1,119,37,119.1,37.8z"/>
<path class="st1" d="M114.1,24.6c0.2,0.3,0.4,0.6,0.6,0.9C114.5,25.2,114.3,24.9,114.1,24.6z"/>
<path class="st1" d="M3.9,31c-0.4,1.2-0.8,2.4-1.1,3.7c0,0,0,0,0,0C3.2,33.5,3.5,32.2,3.9,31z"/>
<path class="st1" d="M113.1,23.2c0.2,0.3,0.5,0.6,0.7,0.9C113.5,23.8,113.3,23.5,113.1,23.2z"/>
<path class="st1" d="M111.3,21c0.6,0.6,1.1,1.3,1.6,1.9C112.4,22.3,111.8,21.7,111.3,21z"/>
<path class="st1" d="M117,29.9c0.1,0.2,0.2,0.4,0.3,0.6C117.2,30.3,117.1,30.1,117,29.9z"/>
<path class="st1" d="M110,19.6c-0.9-0.9-1.8-1.7-2.8-2.5c0,0,0,0,0,0C108.2,17.9,109.1,18.8,110,19.6z"/>
<path class="st1" d="M115.1,26.2c0.3,0.4,0.5,0.8,0.7,1.3C115.6,27,115.4,26.6,115.1,26.2z"/>
<path class="st1" d="M118.3,33.6c0.1,0.2,0.1,0.4,0.2,0.6C118.4,34,118.4,33.8,118.3,33.6z"/>
<path class="st1" d="M117.8,31.9c0.1,0.2,0.1,0.4,0.2,0.6C118,32.4,117.9,32.1,117.8,31.9z"/>
<path class="st1" d="M116.3,28.2c0.1,0.2,0.2,0.5,0.4,0.7C116.5,28.7,116.4,28.5,116.3,28.2z"/>
<path class="st1" d="M15.2,16.3c-1.4,1.1-2.6,2.2-3.8,3.4C12.6,18.5,13.9,17.4,15.2,16.3C15.2,16.3,15.2,16.3,15.2,16.3z"/>
<path class="st1" d="M4,31c0.2-0.4,0.3-0.9,0.5-1.3C4.3,30.1,4.1,30.6,4,31z"/>
<path class="st1" d="M4.5,29.6c0.6-1.3,1.3-2.6,2-3.9C5.8,27,5.1,28.3,4.5,29.6z"/>
<path class="st1" d="M7.4,24.5c1.1-1.6,2.5-3.2,4-4.7C9.9,21.2,8.6,22.8,7.4,24.5z"/>
<path class="st1" d="M6.6,25.7c0.3-0.4,0.5-0.8,0.8-1.2C7.1,24.9,6.8,25.3,6.6,25.7z"/>
<path class="st1" d="M110.1,19.8c0.3,0.3,0.6,0.7,0.9,1C110.8,20.5,110.4,20.1,110.1,19.8z"/>
<path class="st1" d="M111.1,20.8c0.1,0.1,0.1,0.2,0.2,0.2C111.2,20.9,111.1,20.9,111.1,20.8z"/>
<path class="st1" d="M115.9,27.4c0.1,0.3,0.3,0.5,0.4,0.8C116.1,27.9,116,27.7,115.9,27.4z"/>
<path class="st1" d="M110,19.6c0.1,0.1,0.1,0.1,0.2,0.2C110.1,19.8,110,19.7,110,19.6z"/>
<path class="st1" d="M118.7,35.3c-0.1-0.4-0.1-0.7-0.2-1.1C118.5,34.6,118.6,34.9,118.7,35.3C118.7,35.3,118.7,35.3,118.7,35.3z"/>
<path class="st1" d="M116.6,28.9c0.1,0.3,0.3,0.6,0.4,0.9C116.9,29.6,116.8,29.3,116.6,28.9z"/>
<path class="st1" d="M117.3,30.5c0.2,0.5,0.4,1,0.5,1.5C117.7,31.5,117.5,31,117.3,30.5z"/>
<path class="st1" d="M118,32.6c0.1,0.3,0.2,0.7,0.3,1C118.2,33.3,118.1,32.9,118,32.6z"/>
<path class="st1" d="M114.7,25.4c0.2,0.2,0.3,0.5,0.4,0.7C115,25.9,114.8,25.7,114.7,25.4z"/>
<path class="st1" d="M113.7,24.1c0.1,0.2,0.2,0.3,0.4,0.5C114,24.4,113.9,24.2,113.7,24.1z"/>
<path class="st1" d="M112.9,23c0.1,0.1,0.1,0.1,0.2,0.2C113,23.1,113,23,112.9,23z"/>
<path class="st1" d="M4.5,29.7C4.5,29.7,4.5,29.7,4.5,29.7C4.5,29.7,4.5,29.7,4.5,29.7z"/>
<path class="st1" d="M11.4,19.7C11.4,19.7,11.4,19.7,11.4,19.7C11.4,19.7,11.4,19.7,11.4,19.7z"/>
<path class="st1" d="M7.4,24.5C7.4,24.5,7.4,24.5,7.4,24.5C7.4,24.5,7.4,24.5,7.4,24.5z"/>
<path class="st1" d="M6.6,25.8C6.6,25.8,6.6,25.8,6.6,25.8C6.6,25.8,6.6,25.8,6.6,25.8z"/>
<path class="st1" d="M3.9,31C3.9,31,3.9,31,3.9,31C3.9,31,3.9,31,3.9,31z"/>
<path class="st1" d="M2.8,35.2C2.8,35.2,2.8,35.2,2.8,35.2c0-0.2,0.1-0.3,0.1-0.5c0,0,0,0,0,0c-0.2,0.8-0.3,1.7-0.4,2.5c0,0,0,0,0,0
	C2.6,36.5,2.7,35.8,2.8,35.2C2.8,35.2,2.8,35.2,2.8,35.2z"/>
<path class="st1" d="M106.6,16.6C106.6,16.6,106.6,16.6,106.6,16.6c0.3,0.2,0.4,0.4,0.6,0.5c0,0,0,0,0,0c-0.7-0.6-1.3-1.1-2.1-1.6
	c0,0,0,0,0,0C105.6,15.8,106.1,16.2,106.6,16.6C106.6,16.6,106.6,16.6,106.6,16.6z"/>
<path class="st1" d="M118.8,35.8C118.8,35.8,118.8,35.8,118.8,35.8c0.1,0.7,0.2,1.4,0.2,2.1c0,0,0,0,0,0c-0.1-0.8-0.2-1.7-0.3-2.5
	c0,0,0,0,0,0C118.7,35.5,118.7,35.6,118.8,35.8z"/>
<path class="st1" d="M17.3,14.7c-0.7,0.5-1.4,1-2.1,1.6c0,0,0,0,0.1,0C15.9,15.8,16.6,15.2,17.3,14.7C17.3,14.7,17.3,14.7,17.3,14.7
	z"/>
<path class="st1" d="M2.9,34.7C2.9,34.7,2.9,34.7,2.9,34.7c0,0.1-0.1,0.3-0.1,0.4C2.8,35,2.9,34.8,2.9,34.7z"/>
<path class="st1" d="M107.2,17.1C107.2,17.1,107.2,17.1,107.2,17.1c-0.2-0.2-0.4-0.3-0.5-0.4C106.8,16.8,107,17,107.2,17.1z"/>
<path class="st1" d="M93.1,44c-2.8-2.4-18.8-16.4-22.8-19.4c-2.1-1.6-3.4-2.3-4.6-2.7c-1-0.3-2.6-0.6-5,0.1
	c-2.3,0.7-4.6,2.6-6.9,4.4c-2.1,1.7-4.3,3.4-6,3.8c-2.9,0.6-5.7,0-6.6-1.2c-0.4-0.5,0.2-1.1,0.2-1.1l5.1-5.5c4-4,7.8-7.8,16.6-8
	c5.9-0.1,11.9,2.7,11.9,2.7c11.1,5.4,22.4,3.4,31.6-0.5c-0.5-0.4-0.9-0.8-1.4-1.1c-5.2,2.2-10.1,3.4-14.9,3.4
	c-4.9,0-9.7-1.2-14.5-3.5c-0.2-0.1-6.2-2.9-12.3-2.9c-0.2,0-0.3,0-0.5,0c-7.2,0.2-11.3,2.7-14.1,5c-2.7,0.1-5,0.7-7,1.3
	c-1.8,0.5-3.4,0.9-4.9,0.9c-0.6,0-1.8-0.1-1.9-0.1c-1.8-0.1-10.6-2.2-17.7-4.9c-0.7,0.5-1.4,1-2.1,1.6c0,0,0,0,0,0
	c0.4-0.3,0.8-0.6,1.2-0.9c6.1,2.9,10.2,4.1,14.9,5.4c0.8,0.2,4.8,0.9,5.6,0.9c1.8,0,3.6-0.5,5.5-1c1.5-0.4,3-0.8,4.7-1.1
	c-0.6,0.6-1.2,1.2-1.8,1.8l-5.2,5.6c-0.2,0.2-1.2,1.2-0.6,2.4c0.2,0.5,0.6,0.9,1.2,1.3c1.5,1,4.7,1.7,7.4,1.1
	c2.1-0.5,4.3-2.2,6.7-4.1c2.3-1.8,4.9-3.5,6.8-4.1c0.7-0.2,1.7-0.3,2.5-0.2c1.4,0.2,2.8,0.7,5.2,2.5c4.2,3.2,22.9,19.5,23.1,19.7
	c0,0,1.3,1.1,1.3,3c-0.1,1.1-0.7,2-1.7,2.7c-2.8,1.8-5,0.2-5.1,0.1c0,0-6.4-5.9-8.8-7.9c-0.3-0.3-0.8-0.7-1.1-0.4
	c-0.3,0.3,0.5,1,0.5,1l7.5,7.5c0,0,1,0.9,1.2,2.3c0,1-0.3,2.3-1.9,3.4c-2.7,1.8-4.8,0.5-5.2,0.2c-2.3-2.3-4.8-4.8-6.5-6.2
	c-0.3-0.3-0.8-0.7-1.1-0.4c-0.3,0.3,0.5,1,0.5,1l5.5,6.1c0,0,1.3,1.6,0.1,3.1c0,0,0,0,0.1,0c-0.2,0.3-0.5,0.6-0.8,0.8
	c-1.1,0.9-2.8,1-3.7,0.9c-1.1-0.2-1.3-0.6-1.3-0.6c0,0-2.9-3-5.3-5c-0.3-0.3-0.8-0.7-1.1-0.4c-0.3,0.3,0.5,1,0.5,1l4.7,5.2
	c0.2,0.2,0,0.5-0.2,0.7c-0.2,0.3-0.9,0.9-2.7,1.2c-2.2,0.3-4.7-1-5.7-1.5c0.5-0.9,0.8-2,0.8-3.1c0-3.6-2.9-6.6-6.6-6.6
	c-0.2,0-0.4,0-0.7,0c0.3-2.3-0.2-5.3-3.3-6.6c-0.9-0.4-1.9-0.6-2.8-0.6c-0.9,0-1.7,0.2-2.3,0.5c-0.5-1.1-1.5-2.4-3.3-3
	c-0.8-0.3-1.6-0.4-2.4-0.4c-1.7,0-3,0.6-4,1.4c-1-1.4-2.7-2.3-4.5-2.3c-1.6,0-3.1,0.7-4.1,1.8c-0.9-0.8-6.1-4.6-22.7-8.3
	c-0.7-0.2-2.4-0.7-3.5-0.9c-0.1,0.7-0.2,1.4-0.3,2c0.4,0.1,2.8,0.7,3.3,0.8c15.7,3.5,20.9,7.1,21.8,7.8c-0.3,0.7-0.5,1.5-0.5,2.3
	c0,3.2,2.6,5.9,5.9,5.9c0.4,0,0.7,0,1.1-0.1c0.5,2.4,2.1,4.2,4.4,5.1c0.7,0.3,1.4,0.4,2.1,0.4c0.4,0,0.9-0.1,1.3-0.2
	c0.4,1.1,1.4,2.5,3.7,3.4c0.8,0.3,1.6,0.5,2.3,0.5c0.6,0,1.2-0.1,1.8-0.3c1.1,2.6,3.6,4.3,6.4,4.3c1.9,0,3.7-0.8,5-2.1
	c1.1,0.6,3.5,1.8,5.9,1.8c0.3,0,0.6,0,0.9-0.1c2.4-0.3,3.5-1.2,4-2c0.1-0.1,0.2-0.3,0.2-0.4c0.6,0.2,1.2,0.3,1.9,0.3
	c1.3,0,2.5-0.4,3.8-1.4c1.2-0.9,2.1-2.2,2.2-3.3c0,0,0,0,0,0c0.4,0.1,0.8,0.1,1.3,0.1c1.3,0,2.6-0.4,3.9-1.2c2.4-1.6,2.8-3.7,2.8-5
	C88.5,54,89,54,89.4,54c1.3,0,2.5-0.4,3.7-1.1c1.5-1,2.4-2.4,2.5-4.1c0.1-1.2-0.2-2.3-0.8-3.3c4.1-1.7,13.3-5.1,24.2-7.6
	c-0.1-0.7-0.1-1.4-0.2-2.1C105.3,38.7,95.3,43,93.1,44z M56.2,65.3c-2.7,0-5-2.2-5.1-4.9c0-0.5-0.1-0.6-0.5-0.2
	c-0.8,0.8-2.1,1.7-4.3,0.8c-2.8-1.1-3-3.2-2.9-4.1c0-0.3,0-0.4-0.3-0.2c-1.1,0.8-2.4,1.2-3.9,0.6c-3.8-1.5-3.5-5.2-3.3-6.2
	c0-0.1,0-0.1,0-0.1c-0.7,0.7-1.7,1.1-2.8,1.1c-2.2,0-4.1-1.8-4.1-4.1c0-2.3,1.8-4.1,4.1-4.1c2.1,0,3.8,1.6,4,3.6
	c0.6-0.9,2.8-3.3,6.3-2.3c2.5,0.8,2.8,3,2.9,3.8c0,0.2,0.1,0.2,0.2,0.1c0.6-0.6,2.3-2,5.2-0.8c3.7,1.6,2.2,6.2,2.1,6.4
	c-0.1,0.3-0.3,0.7-0.2,0.8c0.2,0.1,1.4-0.6,2.6-0.6c2.8,0,5.1,2.3,5.1,5.1C61.3,63,59.1,65.3,56.2,65.3z"/>
<path class="st1" d="M106.6,16.6C106.6,16.6,106.6,16.6,106.6,16.6C106.6,16.6,106.6,16.6,106.6,16.6
	C106.6,16.6,106.6,16.6,106.6,16.6z"/>
<path class="st1" d="M118.8,35.8C118.8,35.8,118.8,35.8,118.8,35.8c0-0.2-0.1-0.3-0.1-0.5c0,0,0,0,0,0
	C118.7,35.5,118.7,35.6,118.8,35.8z"/>
<path class="st1" d="M93.2,43.6c-5.8-5-19.1-16.6-22.7-19.3c-2.1-1.5-3.5-2.4-4.7-2.7c-0.6-0.2-1.3-0.4-2.3-0.4
	c-0.9,0-1.9,0.2-2.9,0.5c-2.3,0.7-4.6,2.6-6.9,4.4l-0.1,0.1c-2.1,1.7-4.3,3.4-5.9,3.7c-0.7,0.2-1.4,0.2-2.2,0.2
	c-1.8,0-3.5-0.5-4.1-1.3c-0.1-0.1,0-0.3,0.2-0.6l0,0l5.1-5.5c4-4,7.7-7.7,16.3-7.9c0.1,0,0.3,0,0.4,0c5.4,0,10.7,2.4,11.3,2.7
	c5,2.5,10.2,3.7,15.5,3.7c5.4,0,11-1.3,16.9-4c-0.2-0.1-0.4-0.3-0.5-0.4c0,0,0,0-0.1-0.1C97.3,20.5,86,22.5,75,17.1
	c-0.1,0-6-2.9-11.9-2.7c-8.8,0.2-12.6,4-16.6,8l-5.1,5.5c0,0.1-0.6,0.7-0.2,1.1c0.9,1.2,3.8,1.9,6.6,1.2c1.7-0.4,3.9-2.1,6-3.8
	c2.3-1.8,4.6-3.7,6.9-4.4c2.4-0.8,4-0.4,5-0.1c1.1,0.3,2.5,1.1,4.6,2.7c4,3,20.1,17,22.8,19.4c2.2-1,12.2-5.3,25.7-8.3
	c0-0.2-0.1-0.3-0.1-0.5C105.5,38.2,95.6,42.5,93.2,43.6z"/>
<path class="st1" d="M2.8,35.2C2.8,35.2,2.8,35.2,2.8,35.2C2.8,35.2,2.8,35.2,2.8,35.2C2.8,35.2,2.8,35.2,2.8,35.2z"/>
<path class="st1" d="M36.9,22c1.9,0,3.8-0.5,5.6-1c1.1-0.3,2.3-0.6,3.5-0.9c-0.3,0.3-0.7,0.7-1,1l-5.1,5.6c-0.4,0.4-1.3,1.5-0.7,2.8
	c0.2,0.5,0.7,1.1,1.4,1.5c1.2,0.8,3.4,1.4,5.5,1.4c0.8,0,1.5-0.1,2.2-0.2c2.2-0.5,4.4-2.3,6.8-4.2c1.9-1.5,4.6-3.4,6.7-4
	c0.6-0.2,1.3-0.3,1.9-0.3c0.2,0,0.3,0,0.5,0c1.4,0.2,2.7,0.6,5.1,2.4c4.2,3.2,22.9,19.5,23.1,19.7c0,0,1.2,1,1.1,2.7
	c0,1-0.6,1.8-1.5,2.4c-0.8,0.5-1.6,0.8-2.5,0.8c-1.2,0-2.1-0.6-2.2-0.6c-0.1-0.1-6.5-5.9-8.8-7.9c-0.4-0.3-0.7-0.6-1.1-0.6
	c-0.2,0-0.4,0.1-0.5,0.2c-0.4,0.5,0,1.1,0.5,1.5l7.5,7.5c0,0,0.9,0.9,1,2c0.1,1.2-0.5,2.3-1.8,3.1c-0.9,0.6-1.8,0.9-2.7,0.9
	c-1.1,0-2-0.5-2.1-0.6l-1.1-1.1c-2-1.9-4-3.9-5.5-5.2c-0.4-0.3-0.7-0.6-1.1-0.6c-0.2,0-0.3,0.1-0.5,0.2c-0.2,0.2-0.3,0.5,0.1,1.1
	c0.2,0.2,0.4,0.4,0.4,0.4l5.5,6.1c0,0.1,1.1,1.3,0.1,2.6l-0.2,0.2c-0.2,0.2-0.3,0.3-0.5,0.5c-0.9,0.8-2.2,0.8-2.7,0.8
	c-0.3,0-0.5,0-0.7-0.1c-0.5-0.1-0.9-0.2-1.1-0.5L72,61.9c-0.3-0.3-3.1-3.1-5.3-5c-0.3-0.3-0.7-0.6-1.1-0.6c-0.2,0-0.4,0.1-0.5,0.2
	c-0.5,0.5,0.2,1.2,0.5,1.5l4.7,5.1c0,0-0.1,0.2-0.2,0.3c-0.2,0.2-0.7,0.8-2.4,1c-0.2,0-0.4,0-0.6,0c-1.7,0-3.6-0.8-4.6-1.4
	c0.4-0.9,0.7-1.9,0.7-3c0-3.8-3.1-7-6.9-7c-0.1,0-0.2,0-0.3,0c0.1-1.8-0.1-5.1-3.5-6.5c-1-0.4-2-0.6-2.9-0.6c-0.7,0-1.5,0.1-2.1,0.4
	c-0.7-1.4-1.9-2.4-3.4-2.9c-0.8-0.3-1.7-0.4-2.5-0.4c-1.4,0-2.7,0.4-3.9,1.2c-1.1-1.4-2.8-2.2-4.6-2.2c-1.6,0-3,0.6-4.1,1.7
	c-1.4-1.1-7.2-4.8-22.6-8.3c-0.7-0.2-2.4-0.6-3.4-0.9c0,0.1-0.1,0.3-0.1,0.4c0,0,0,0,0,0c1.1,0.3,2.8,0.8,3.5,0.9
	C22.9,39.8,28,43.6,29,44.4c1-1.1,2.5-1.8,4.1-1.8c1.8,0,3.5,0.9,4.5,2.3c1-0.8,2.3-1.4,4-1.4c0.8,0,1.6,0.1,2.4,0.4
	c1.9,0.6,2.8,1.9,3.3,3c0.6-0.3,1.4-0.5,2.3-0.5c0.9,0,1.8,0.2,2.8,0.6c3.1,1.3,3.5,4.3,3.3,6.6c0.2,0,0.4,0,0.7,0
	c3.6,0,6.6,3,6.6,6.6c0,1.1-0.3,2.2-0.8,3.1c1,0.6,3.5,1.8,5.7,1.5c1.8-0.2,2.4-0.8,2.7-1.2c0.2-0.2,0.3-0.5,0.2-0.7l-4.7-5.2
	c0,0-0.8-0.7-0.5-1c0.3-0.3,0.7,0.1,1.1,0.4c2.4,2,5.3,5,5.3,5c0,0,0.2,0.4,1.3,0.6c0.9,0.2,2.6,0.1,3.7-0.9
	c0.3-0.2,0.6-0.5,0.8-0.8c0,0,0,0-0.1,0c1.2-1.5-0.1-3.1-0.1-3.1l-5.5-6.1c0,0-0.8-0.7-0.5-1c0.2-0.3,0.7,0.1,1.1,0.4
	c1.7,1.4,4.2,3.9,6.5,6.2c0.5,0.3,2.5,1.6,5.2-0.2c1.7-1.1,2-2.4,1.9-3.4c-0.1-1.3-1.2-2.3-1.2-2.3l-7.5-7.5c0,0-0.8-0.7-0.5-1
	c0.2-0.3,0.7,0.1,1.1,0.4c2.4,2,8.8,7.9,8.8,7.9c0.1,0.1,2.3,1.7,5.1-0.1c1-0.6,1.6-1.6,1.7-2.7c0.1-1.9-1.3-3-1.3-3
	C92.3,45.4,73.6,29,69.3,25.8c-2.5-1.8-3.8-2.3-5.2-2.5c-0.7-0.1-1.8,0-2.5,0.2c-2,0.5-4.5,2.3-6.8,4.1c-2.4,1.9-4.6,3.7-6.7,4.1
	c-2.6,0.6-5.9-0.1-7.4-1.1c-0.6-0.4-1-0.9-1.2-1.3c-0.5-1.3,0.5-2.3,0.6-2.4l5.2-5.6c0.6-0.6,1.2-1.2,1.8-1.8
	c-1.7,0.2-3.2,0.6-4.7,1.1c-1.9,0.5-3.7,1-5.5,1c-0.8,0-4.8-0.7-5.6-0.9c-4.7-1.3-8.8-2.5-14.9-5.4c-0.4,0.3-0.8,0.6-1.2,0.9
	c7.4,3,16.4,5.4,19.2,5.5C35.3,21.9,36.1,22,36.9,22z"/>
<path class="st1" d="M328.3,14.4c-2.2-2.7-5.5-4.1-10-4.1c-4.5,0-7.8,1.4-10,4.1c-2.2,2.7-3.3,6-3.3,9.7c0,3.8,1.1,7.1,3.3,9.8
	c2.2,2.7,5.5,4.1,10,4.1c4.5,0,7.8-1.4,10-4.1c2.2-2.7,3.3-6,3.3-9.8C331.5,20.4,330.5,17.2,328.3,14.4z M322.8,30.2
	c-1.1,1.4-2.6,2.1-4.6,2.1c-2,0-3.5-0.7-4.6-2.1c-1.1-1.4-1.6-3.4-1.6-6c0-2.6,0.5-4.6,1.6-6c1.1-1.4,2.6-2.1,4.6-2.1
	c2,0,3.5,0.7,4.6,2.1c1.1,1.4,1.6,3.4,1.6,6C324.4,26.7,323.9,28.7,322.8,30.2z"/>
<path class="st1" d="M275.6,28.3v-9.8c0-3.1-1.1-5.3-3.3-6.4c-2.2-1.1-4.8-1.7-7.6-1.7c-4.4,0-7.5,1.1-9.3,3.4
	c-1.1,1.5-1.8,3.3-1.9,5.6h6.6c0.2-1,0.5-1.8,1-2.4c0.7-0.8,1.8-1.2,3.5-1.2c1.5,0,2.6,0.2,3.3,0.6c0.7,0.4,1.1,1.1,1.1,2.2
	c0,0.9-0.5,1.5-1.5,1.9c-0.5,0.2-1.5,0.4-2.7,0.6l-2.3,0.3c-2.6,0.3-4.7,0.9-6,1.7c-2.5,1.4-3.7,3.7-3.7,7c0,2.5,0.8,4.4,2.3,5.7
	c1.5,1.3,3.5,1.9,5.9,2C275.6,38.6,275.5,30.1,275.6,28.3z M268.8,26.9c0,2.3-0.7,3.8-2,4.7c-1.3,0.9-2.6,1.3-4.1,1.3
	c-0.9,0-1.7-0.3-2.4-0.8c-0.7-0.5-1-1.4-1-2.5c0-1.3,0.5-2.3,1.6-2.9c0.6-0.4,1.7-0.7,3.1-0.9l1.6-0.3c0.8-0.1,1.4-0.3,1.8-0.5
	c0.4-0.2,0.9-0.4,1.3-0.7V26.9z"/>
<path class="st1" d="M238.1,38c4.4,0,7.7-1.5,10-4.5c1.4-1.8,2.2-3.8,2.4-5.9h-7.3c-0.1,1.4-0.6,2.5-1.3,3.3
	c-0.7,0.9-1.9,1.3-3.6,1.3c-2.4,0-4-1.1-4.8-3.2c-0.5-1.2-0.7-2.7-0.7-4.6c0-2,0.2-3.6,0.7-4.8c0.9-2.3,2.5-3.4,5-3.4
	c1.7,0,2.9,0.5,3.8,1.6c0.6,0.8,0.9,1.7,1,2.6h7.3c-0.4-3.7-1.7-6.3-3.9-7.7c-2.2-1.5-5-2.2-8.4-2.2c-4,0-7.2,1.2-9.5,3.7
	c-2.3,2.5-3.4,5.9-3.4,10.4c0,3.9,1,7.2,3.1,9.6C230.4,36.7,233.7,38,238.1,38z"/>
<path class="st1" d="M215.9,37.4V24.7c0-2.1,0.3-3.6,0.8-4.6c0.9-1.8,2.8-2.7,5.5-2.7c0.2,0,0.5,0,0.8,0c0.3,0,0.7,0,1.1,0.1v-7
	c-0.3,0-0.5,0-0.6,0c-0.1,0-0.2,0-0.3,0c-15.1,0-14.2,13.3-14.2,13.3v13.5H215.9z"/>
<path class="st1" d="M184.1,34.8c2.6,2.1,5.7,3.2,9.1,3.2c4.2,0,7.4-1.3,9.8-3.8c1.3-1.3,2-2.6,2.4-3.9h-7.2c-0.3,0.4-0.6,0.8-0.9,1
	c-1,0.8-2.3,1-3.8,1c-1.5,0-2.6-0.2-3.6-0.9c-1.7-1-2.7-2.8-2.8-5.4h18.9c0-2.2,0-4-0.2-5.2c-0.3-2-1-3.8-2.1-5.4
	c-1.2-1.8-2.7-3-4.5-3.8c-1.8-0.8-3.8-1.2-6.1-1.2c-3.8,0-6.9,1.2-9.3,3.6c-2.4,2.4-3.6,5.8-3.6,10.3
	C180.2,29.2,181.5,32.7,184.1,34.8z M189,17.6c1-1,2.3-1.5,4.1-1.5c1.6,0,2.9,0.5,4,1.4c1.1,0.9,1.7,2.3,1.8,4.1h-11.7
	C187.4,19.9,188,18.6,189,17.6z"/>
<path class="st1" d="M166.6,10.4c-3.2,0-5.9,1.4-7.8,3.6c-1.8-2.2-4.4-3.6-7.8-3.6c-6.7,0-11,4.9-11,11.4v15.6h6.2V21.7
	c0-2.9,1.9-4.9,4.7-4.9c4.1,0,4.5,3.4,4.5,4.9v15.7h6.2V21.7c0-2.9,2-4.9,4.7-4.9c4.1,0,4.6,3.4,4.6,4.9v15.7h6.2V21.8
	C177.4,15.1,173.4,10.4,166.6,10.4z"/>
<path class="st1" d="M296.1,7.1l0,7.3c-0.8-1.2-1.8-2.2-3-2.9c-1.2-0.7-2.6-1-4.2-1c-3.4,0-6.1,1.3-8.2,3.8c-2,2.5-3.1,6.2-3.1,10.6
	c0,3.8,1,7,3.1,9.4c2.1,2.5,6.1,3.5,9.7,3.5c12.6,0,12.4-10.8,12.4-10.8l0-24.8C303,2.3,296.1,1.6,296.1,7.1z M294.8,30.2
	c-1,1.4-2.5,2.1-4.4,2.1c-1.9,0-3.4-0.7-4.3-2.2c-0.9-1.4-1.4-3.5-1.4-5.9c0-2.2,0.5-4.1,1.4-5.6c0.9-1.5,2.4-2.3,4.4-2.3
	c1.3,0,2.4,0.4,3.4,1.2c1.6,1.4,2.4,3.8,2.4,7C296.3,26.9,295.8,28.8,294.8,30.2z"/>
<path class="st1" d="M196.2,48.4c-4.7,0-7.2,1.2-8.9,2.5c-2.6,2-4.1,4.8-4.1,9.5v23.7h3.4c0.9,0,1.7-0.3,2.4-1c0.7-0.7,1-1.5,1-2.4
	v-8.9c0.8,1.4,1.9,2.4,3.2,3.1c1.3,0.6,2.7,0.9,4.4,0.9c3.2,0,5.7-1.3,7.7-3.8c2-2.6,3-5.9,3-10.1c0-4-0.9-7.1-3.2-9.9
	C203.1,49.6,199.4,48.4,196.2,48.4z M199.9,67.9c-1,1.4-2.4,2.1-4.1,2.1c-1.9,0-3.3-0.7-4.3-2.1c-1-1.3-1.5-3.1-1.5-5.7
	c0-2.7,0.5-4.7,1.4-5.9c1-1.4,2.4-2.1,4.2-2.1c1.9,0,3.3,0.7,4.3,2.1c1,1.4,1.5,3.4,1.5,5.9C201.4,64.6,200.9,66.5,199.9,67.9z"/>
<path class="st1" d="M256.3,50.9c-2.3-1.8-4.7-2.7-8.8-2.6c-4.1,0.1-7.2,1.3-9,3.8c-1.9,2.5-2.8,5.9-2.8,10c0,3.5,0.7,6.3,2.1,8.5
	c1.4,2.1,3.1,3.6,5.1,4.4c2,0.8,4,1,6,0.5c2-0.5,3.6-1.6,4.8-3.5v1.7c-0.1,2.1-0.6,3.7-1.5,4.8c-0.9,1.1-1.9,1.7-3,1.9
	c-1.1,0.2-2.2,0.1-3.3-0.4c-1.1-0.5-1.9-1.2-2.4-2.1h-7.2c1.9,5.6,5.2,8.1,11.2,8.5c9.7,0.7,12.8-7.5,12.8-12v-14
	C260.4,55.8,258.9,52.8,256.3,50.9z M253.4,64.6c-0.3,1.5-0.7,2.7-1.3,3.4c-1.3,1.7-3.2,2.3-5.8,1.8c-2.6-0.5-3.9-3-3.9-7.6
	c0-2.1,0.4-4,1.2-5.7c0.8-1.6,2.3-2.5,4.5-2.5c1.6,0,2.9,0.6,3.7,1.8c0.9,1.2,1.4,2.5,1.6,4.1C253.7,61.5,253.7,63,253.4,64.6z"/>
<path class="st1" d="M229.8,50.2c-2.2-1.1-4.8-1.7-7.6-1.7c-4.4,0-7.5,1.1-9.3,3.4c-1.1,1.5-1.8,3.3-1.9,5.6h6.6
	c0.2-1,0.5-1.8,1-2.4c0.7-0.8,1.8-1.2,3.5-1.2c1.5,0,2.6,0.2,3.3,0.6c0.7,0.4,1.1,1.1,1.1,2.2c0,0.9-0.5,1.5-1.5,1.9
	c-0.5,0.2-1.5,0.4-2.7,0.6l-2.3,0.3c-2.6,0.3-4.7,0.9-6,1.7c-2.5,1.4-3.7,3.7-3.7,7c0,2.5,0.8,4.4,2.3,5.7c1.5,1.3,3.5,1.9,5.9,2
	c14.9,0.7,14.7-7.8,14.8-9.6v-9.8C233.2,53.4,232.1,51.3,229.8,50.2z M226.4,65c0,2.3-0.7,3.8-1.9,4.7c-1.3,0.9-2.6,1.3-4.1,1.3
	c-0.9,0-1.7-0.3-2.4-0.8c-0.7-0.5-1-1.4-1-2.5c0-1.3,0.5-2.3,1.6-2.9c0.6-0.4,1.7-0.7,3.1-0.9l1.6-0.3c0.8-0.1,1.4-0.3,1.8-0.5
	c0.5-0.2,0.9-0.4,1.3-0.7V65z"/>
<path class="st1" d="M276.2,48.2c-4.5,0-7.8,1.4-10,4.1c-2.2,2.7-3.3,6-3.3,9.7c0,3.8,1.1,7.1,3.3,9.8c2.2,2.7,5.5,4.1,10,4.1
	c4.5,0,7.8-1.4,10-4.1c2.2-2.7,3.3-6,3.3-9.8c0-3.7-1.1-7-3.3-9.7C284,49.6,280.7,48.2,276.2,48.2z M280.8,68.1
	c-1.1,1.4-2.6,2.1-4.6,2.1c-2,0-3.5-0.7-4.6-2.1c-1.1-1.4-1.6-3.4-1.6-6c0-2.6,0.5-4.6,1.6-6c1.1-1.4,2.6-2.1,4.6-2.1
	c2,0,3.5,0.7,4.6,2.1c1.1,1.4,1.6,3.4,1.6,6C282.4,64.7,281.8,66.7,280.8,68.1z"/>
</svg>
