<?xml version="1.0" encoding="utf-8"?>
<!-- Generator: Adobe Illustrator 24.0.1, SVG Export Plug-In . SVG Version: 6.00 Build 0)  -->
<svg version="1.1" id="Capa_1" xmlns="http://www.w3.org/2000/svg" xmlns:xlink="http://www.w3.org/1999/xlink" x="0px" y="0px"
	 viewBox="0 0 512 512" style="enable-background:new 0 0 512 512;" xml:space="preserve">
<style type="text/css">
	.st0{fill:#FFFFFF;}
</style>
<g>
	<g>
		<path class="st0" d="M492,157.3H20c-11,0-20,9-20,20c0,11,9,20,20,20h472c11,0,20-9,20-20S503,157.3,492,157.3z"/>
	</g>
</g>
<g>
	<g>
		<path class="st0" d="M492,0H20C9,0,0,9,0,20s9,20,20,20h472c11,0,20-9,20-20S503,0,492,0z"/>
	</g>
</g>
<g>
	<g>
		<path class="st0" d="M492,314.7H20c-11,0-20,9-20,20s9,20,20,20h472c11,0,20-9,20-20S503,314.7,492,314.7z"/>
	</g>
</g>
<g>
	<g>
		<path class="st0" d="M492,472H20c-11,0-20,9-20,20s9,20,20,20h472c11,0,20-9,20-20S503,472,492,472z"/>
	</g>
</g>
</svg>
