<?xml version="1.0" encoding="utf-8"?>
<!-- Generator: Adobe Illustrator 24.0.1, SVG Export Plug-In . SVG Version: 6.00 Build 0)  -->
<svg version="1.1" id="Capa_1" xmlns="http://www.w3.org/2000/svg" xmlns:xlink="http://www.w3.org/1999/xlink" x="0px" y="0px"
	 viewBox="0 0 512 138.6" style="enable-background:new 0 0 512 138.6;" xml:space="preserve">
<style type="text/css">
	.st0{fill:#FFFFFF;}
</style>
<g>
	<g>
		<g>
			<path class="st0" d="M91.8,22.6c-1.7-3.4-4.3-6.1-7.6-8.2c-3.4-2.1-7.5-3.6-12.1-4.4c-4.7-0.9-10.2-1.2-16.5-1.3H26.5
				c-3,0-6,2.4-6.7,5.3L0.1,99.3c-0.7,2.9,1.2,5.3,4.2,5.3h13.9c3,0,6-2.3,6.7-5.3l4.8-20.7c0.6-2.9,3.6-5.3,6.7-5.3h4
				c17.1,0,30.3-3.5,39.7-10.5c9.5-7,14.2-16.2,14.2-27.7C94.4,30.1,93.6,25.9,91.8,22.6z M61.7,50.5c-4.2,3.1-10.1,4.6-17.6,4.6
				h-3.4c-3,0-4.9-2.4-4.2-5.3l4.2-18.1c0.6-2.9,3.6-5.3,6.6-5.3h4.6c5.3,0,9.4,0.9,12.1,2.7c2.7,1.8,4,4.6,4,8.3
				C68,43,65.9,47.4,61.7,50.5z"/>
		</g>
	</g>
	<g>
		<g>
			<polygon class="st0" points="489.3,15.3 488.4,15.6 487.3,15.7 485.8,15.5 485.1,14.8 484.8,13.7 484.7,12 484.7,5.8 489.4,5.8 
				489.4,3.9 484.7,3.9 484.7,0 482.4,0 482.4,3.9 480.9,3.9 480.9,5.8 482.4,5.8 482.4,13 483.5,16.6 486.7,17.7 488,17.6 
				489.4,17.3 489.4,15.3 			"/>
		</g>
	</g>
	<g>
		<g>
			<polygon class="st0" points="510.9,4.9 507.6,3.5 505.1,4 502.6,5.7 501.2,4.1 498.8,3.5 496.6,4 494.4,5.4 494.4,3.9 492.2,3.9 
				492.2,17.4 494.4,17.4 494.4,7.3 496.3,6.1 498.2,5.7 499.7,5.9 500.5,6.7 500.8,8 501,9.7 501,17.4 503.2,17.4 503.2,8.8 
				503.2,8 503.1,7.4 505.1,6.2 507,5.7 508.5,6 509.3,6.7 509.6,8 509.7,9.7 509.7,17.4 512,17.4 512,8.6 			"/>
		</g>
	</g>
	<g>
		<g>
			<path class="st0" d="M159,34.8c-5.3-3-13.6-4.4-24.9-4.4c-5.6,0-11.2,0.4-16.9,1.3c-4.2,0.6-4.6,0.8-7.2,1.3
				c-5.3,1.2-6.1,6.4-6.1,6.4l-1.7,7c-1,4.5,1.6,4.3,2.7,3.9c2.3-0.7,3.6-1.4,8.3-2.5c4.5-1,9.3-1.8,13.1-1.7
				c5.6,0,9.8,0.6,12.7,1.8c2.8,1.2,4.2,3.3,4.2,6.3l-0.2,2l-2,1.2c-7.9,0.5-13.6,1.2-20.6,2.2c-6.8,0.9-12.7,2.6-17.7,4.9
				c-5.3,2.3-9.3,5.5-12,9.5s-4,8.9-4,14.6c0,5.4,1.9,9.8,5.7,13.2c3.8,3.4,8.7,5,14.7,5c3.8,0,6.7-0.3,8.8-0.8l6.8-2.3l5.7-3.2
				l5.3-3.5l0.1,0.1l-0.5,2.2v0.1l0,0c-0.6,2.7,1.1,5,3.7,5.2l0.1,0.1h0.2H148h2l0.2-0.1c2.8-0.3,5.4-2.6,6-5.2l10.2-44l0.5-3.6
				l0.2-3.4C167,42.4,164.3,37.7,159,34.8z M136.5,84.3l-2.2,2.9l-5.5,2.8c-2.6,1-5,1.6-7.3,1.6c-3.4,0-6.1-0.5-7.9-1.5l-2.7-5.2
				c0-2.8,0.7-5.1,2-6.8l5.9-4c2.5-0.9,5.6-1.6,9.2-2.1c3.2-0.4,9.5-1.1,10.3-1.1l1,1.7C139.2,73.4,137.4,80.9,136.5,84.3z"/>
		</g>
	</g>
	<g>
		<g>
			<path class="st0" d="M412.3,34.8c-5.3-3-13.6-4.5-24.9-4.5c-5.6,0-11.2,0.4-16.9,1.3c-4.2,0.6-4.6,0.7-7.2,1.3
				c-5.3,1.1-6.1,6.5-6.1,6.5l-1.7,7c-1,4.5,1.6,4.3,2.7,3.9c2.3-0.7,3.6-1.4,8.3-2.5c4.5-1,9.3-1.8,13.1-1.7
				c5.6,0,9.8,0.6,12.7,1.8c2.8,1.2,4.2,3.3,4.2,6.3l-0.2,2l-2,1.3c-8,0.5-13.7,1.2-20.6,2.2c-6.8,0.9-12.7,2.6-17.7,4.9
				c-5.3,2.3-9.3,5.5-12,9.5s-4,8.9-4,14.5c0,5.4,1.9,9.9,5.7,13.3c3.8,3.4,8.7,5,14.7,5c3.7,0,6.7-0.3,8.7-0.8l6.7-2.3l5.8-3.2
				l5.2-3.5l0.1,0.1l-0.5,2.3h-0.1l0,0c-0.6,2.7,1,5,3.7,5.2v0.1h0.2c1.8,0,7.8,0,10.7,0h2l0.2-0.1c2.8-0.3,5.4-2.6,5.9-5.3
				l10.2-43.9L420,52l0.3-3.4C420.3,42.4,417.6,37.8,412.3,34.8z M389.9,84.3l-2.3,2.9l-5.4,2.8c-2.6,1-5,1.6-7.3,1.6
				c-3.5,0-6.2-0.5-7.9-1.5l-2.7-5.2c0-2.8,0.7-5.1,2-6.8c1.4-1.7,3.4-3,6-4c2.5-0.9,5.6-1.5,9.2-2.1c3.2-0.4,9.4-1.1,10.3-1.1
				l1,1.7C392.5,73.5,390.7,80.9,389.9,84.3z"/>
		</g>
	</g>
	<g>
		<g>
			<path class="st0" d="M345,22.9c-1.7-3.4-4.4-6.1-7.7-8.2c-3.4-2.1-7.4-3.6-12.1-4.4C320.6,9.5,315.1,9,308.8,9h-29.2
				c-3,0.1-6,2.4-6.7,5.3l-19.6,85.4c-0.7,2.9,1.2,5.3,4.2,5.3h14c3,0,6-2.4,6.7-5.3l4.7-20.7c0.7-2.9,3.7-5.3,6.7-5.3h4
				c17.1,0,30.3-3.5,39.8-10.5c9.4-7,14.2-16.3,14.2-27.7C347.6,30.4,346.8,26.2,345,22.9z M314.9,50.8c-4.2,3-10.1,4.6-17.6,4.6
				h-3.5c-3,0-4.9-2.4-4.3-5.3l4.2-18.1c0.6-2.9,3.6-5.3,6.7-5.3h4.5c5.4,0,9.4,0.9,12.1,2.7c2.7,1.8,4,4.6,4.1,8.3
				C321.2,43.3,319.1,47.7,314.9,50.8z"/>
		</g>
	</g>
	<g>
		<g>
			<path class="st0" d="M464.6,14.9c0.6-2.9-1.2-5.3-4.2-5.2h-12.5c-2.6,0-4.9,1.9-6,4.2l-0.7,1.1l-0.6,2.8l-17.5,79.4l-0.6,2.4v0.1
				c-0.6,2.6,1,4.6,3.5,5l0.2,0.3h13c2.5,0,4.9-1.9,6-4.3l0.7-1L464.6,14.9L464.6,14.9z"/>
		</g>
	</g>
	<g>
		<g>
			<path class="st0" d="M253.8,31.4c-3.3,0-16.7,0-16.7,0c-3,0-6.9,2.4-8.8,5.3c0,0-20,34.3-21.9,37.7h-2.3L197.8,37
				c-0.7-2.9-3.8-5.5-7.6-5.5h-12.5c-3,0-4.9,2.4-4.2,5.3c0,0,9.5,54,11.4,66.7c0.9,7-0.1,8.3-0.1,8.3l-12.4,21.5
				c-1.8,2.9-0.8,5.3,2.2,5.3H189c3,0,7-2.4,8.7-5.3l55.6-94C253.4,39.3,258.7,31.3,253.8,31.4z"/>
		</g>
	</g>
</g>
</svg>
