<?xml version="1.0"?>
<svg xmlns="http://www.w3.org/2000/svg" xmlns:xlink="http://www.w3.org/1999/xlink" version="1.1" id="Capa_1" x="0px" y="0px" viewBox="0 0 512 512" style="enable-background:new 0 0 512 512;" xml:space="preserve" width="512px" height="512px"><g><g>
	<g>
		<path d="M311.088,95.246H43.751C19.626,95.245,0,114.872,0,138.996v94.267h196.216l-20.391-20.391    c-5.904-5.904-5.904-15.476,0-21.38c5.904-5.904,15.476-5.903,21.38,0l46.199,46.199c5.904,5.904,5.904,15.476,0,21.38    l-46.199,46.199c-2.952,2.952-6.821,4.429-10.689,4.429c-3.868,0-7.738-1.476-10.689-4.429c-5.904-5.903-5.904-15.476,0-21.38    l20.391-20.391H0v122.899c0,8.349,6.769,15.118,15.118,15.118h39.856c-1.246-4.834-1.909-9.899-1.909-15.118    c0-33.411,27.182-60.593,60.593-60.593c33.411,0,60.593,27.182,60.593,60.593c0,5.218-0.663,10.283-1.909,15.118h152.26V97.391    C320.343,96.004,315.803,95.246,311.088,95.246z" data-original="#000000" class="active-path" fill="#000000"/>
	</g>
</g><g>
	<g>
		<path d="M437.922,161.764h-28.22v82.027c0,12.534,10.197,22.73,22.731,22.73H512v-30.68    C512,194.995,478.769,161.764,437.922,161.764z" data-original="#000000" class="active-path" fill="#000000"/>
	</g>
</g><g>
	<g>
		<path d="M418.301,356.04c-16.739,0-30.357,13.618-30.357,30.357s13.618,30.357,30.357,30.357s30.357-13.618,30.357-30.357    S435.04,356.04,418.301,356.04z" data-original="#000000" class="active-path" fill="#000000"/>
	</g>
</g><g>
	<g>
		<path d="M432.433,296.758c-29.207,0-52.968-23.76-52.968-52.966v-82.027h-24.628v239.752h4.779    c-1.246-4.835-1.909-9.9-1.909-15.118c0-33.411,27.182-60.593,60.593-60.593c33.411,0,60.593,27.182,60.593,60.593    c0,5.218-0.663,10.283-1.909,15.118h19.897c8.349,0,15.118-6.769,15.118-15.118v-89.64H432.433z" data-original="#000000" class="active-path" fill="#000000"/>
	</g>
</g><g>
	<g>
		<path d="M113.658,356.041c-16.739,0-30.357,13.618-30.357,30.357c0,16.739,13.618,30.357,30.357,30.357    c16.739,0,30.357-13.617,30.357-30.357C144.015,369.659,130.397,356.041,113.658,356.041z" data-original="#000000" class="active-path" fill="#000000"/>
	</g>
</g></g> </svg>
