<svg xmlns="http://www.w3.org/2000/svg" id="Layer_1" x="0" y="0" version="1.1" viewBox="0 0 708 62" xml:space="preserve"><defs/><style>.st3{fill:#fff}.st7{fill:#f79e1b}.st9{fill:#1a1f71}.st10{fill:#006fce}.st11{fill:#fdfefe}</style><path fill="#ffca05" d="M429.2 19.3c1.2-.4 2.5-.6 3.9-.6 6 0 11 4.2 12.1 9.9l8.5-1.7c-1.9-9.6-10.4-16.8-20.6-16.8-2.3 0-4.6.4-6.7 1.1l2.8 8.1z"/><path fill="#00a3df" d="M419.2 46.7l5.7-6.5c-2.6-2.3-4.2-5.6-4.2-9.3s1.6-7 4.2-9.2l-5.7-6.5c-4.3 3.8-7.1 9.5-7.1 15.7 0 6.4 2.7 12 7.1 15.8"/><path fill="#ee4023" d="M445.2 33.5c-1.1 5.6-6.1 9.9-12.1 9.9-1.4 0-2.7-.2-3.9-.6l-2.7 8.2c2.1.7 4.3 1.1 6.7 1.1 10.2 0 18.6-7.2 20.6-16.8l-8.6-1.8z"/><path d="M461.1 40.5c-.3-.4-.7-1.2-.9-1.7-1.3-3.1-1.4-6.3-.3-9.4 1.2-3.4 3.6-6 6.7-7.3 3.9-1.7 8.1-1.3 11.8.9 2.4 1.4 4 3.4 5.3 6.4.2.4.3.8.4 1.1l-23 10zm7.7-13.4c-2.7 1.2-4.2 3.8-3.9 6.8l11.6-5c-1.9-2.4-4.5-3.2-7.7-1.8zM478 38l-.2-.2c-.7 1.1-1.8 2-3.1 2.6-2.6 1.1-5 .8-6.7-.7l-.2.2-2.9 4.4c.7.5 1.5.9 2.3 1.3 3.3 1.4 6.6 1.3 9.9-.1 2.4-1 4.2-2.6 5.5-4.6L478 38zM492.3 15.6v24.5l3.8 1.5-2.2 5.1-4.2-1.8c-.9-.4-1.6-1-2.1-1.7s-.8-1.7-.8-3V15.6h5.5z" class="st3"/><g><path d="M502.2 33.9c0-2.1.9-4 2.4-5.2l-3.9-4.4c-2.7 2.3-4.3 5.8-4.3 9.6s1.7 7.3 4.3 9.6l3.9-4.4c-1.5-1.3-2.4-3.1-2.4-5.2zM509.1 40.8c-.8 0-1.5-.1-2.2-.4L505 46c1.3.4 2.6.7 4.1.7 6.2 0 11.4-4.4 12.6-10.2l-5.7-1.2c-.7 3.2-3.5 5.5-6.9 5.5zM509.1 21.1c-1.4 0-2.8.2-4.1.7l1.9 5.6c.7-.2 1.4-.4 2.2-.4 3.4 0 6.2 2.4 6.8 5.6l5.7-1.2c-1.1-5.9-6.3-10.3-12.5-10.3z" class="st3"/></g><g><path fill="#b82126" d="M628.2 10h-10c-4.4.2-8 2-9.1 5.7-.5 1.9-.8 4-1.3 6-2.2 10.1-4.1 20.5-6.1 30.3h77.9c6 0 10.2-1.3 11.3-6 .5-2.2 1-4.7 1.5-7.2 1.9-9.5 3.9-19 5.9-28.8h-70.1"/><path d="M668.3 35.1c-1.1 1.1-4.1 1.4-3.8-1.2.3-2.1 2.5-2.5 5-2.2-.1 1.1-.3 2.6-1.2 3.4zm-3.4-8.2c-.1.6-.3 1.1-.4 1.7 1.2-.3 5.1-1.3 5.5.4.1.5-.1 1.1-.2 1.6-3.5-.3-6.3.2-7.1 2.7-.5 1.7.1 3.3 1.1 3.8 2.1.9 4.5-.1 5.4-1.5-.1.5-.2 1-.1 1.6h1.8c0-1.7.3-3.1.5-4.7.2-1.3.7-2.6.6-3.8-.2-2.8-4.6-1.9-7.1-1.8zm18.1 9c-1.4 0-2.1-.8-2.1-2.3-.1-2.5 1.1-5.4 3.3-5.6 1.1-.1 1.8.1 2.6.4-.7 2.9-.5 7.5-3.8 7.5zm4.7-13.4c-.2 1.6-.4 3.1-.7 4.5-5.1-1.6-8.3 2.2-8.2 6.8 0 .9.2 1.8.7 2.4 1 1.1 3.8 1.4 5.2.4.3-.2.6-.5.7-.7.1-.2.4-.6.4-.5-.1.5-.2 1-.2 1.5h1.9c.4-5.3 1.5-9.7 2.3-14.5l-2.1.1zM634 35.1c-1.1 1.2-3.9 1.2-4.1-.8-.1-.9.2-1.8.4-2.7.2-.9.3-1.8.4-2.6 1.1-1.3 4.3-1.5 4.7.7.3 2-.4 4.5-1.4 5.4zm1.7-8.2c-1.8-.7-3.9.1-4.9.9 0-.3.1-.6.1-.9h-1.8c-.8 5-1.6 9.9-2.6 14.7h2.1c.3-1.9.5-3.8.9-5.6.5 1.8 3.6 1.5 4.9.8 2.8-1.5 4.9-8.5 1.3-9.9zm9.9 3.5h-4.9c.2-1.1 1.2-2.4 2.8-2.4 1.5-.1 2.6.5 2.1 2.4zm-2-3.7c-1.5.1-2.8.6-3.7 1.5-1.1 1.2-2 3.8-1.8 6.1.4 3.4 4.6 3.3 7.9 2.4.1-.6.2-1.1.3-1.7-1.4.5-3.8 1.2-5.2.3-1.1-.7-1.1-2.4-.7-3.9 2.3-.1 4.6-.1 6.9 0 .1-1.1.6-2.2.2-3.3-.4-1.2-2.1-1.5-3.9-1.4zm-18.4.2c-.1 0-.1.1 0 .1-.5 3.5-1.1 6.7-1.8 10h2.1c.5-3.5 1.1-6.9 1.8-10.1h-2.1zm54.7.1c-1.9-.9-3.4.6-4 1.6.2-.5.2-1.1.3-1.6h-1.9c-.5 3.5-1.1 6.9-1.8 10.1h2.1c0-1.3.3-2.3.5-3.7.4-2.8 1.1-5.9 4.4-5 .2-.5.3-1 .4-1.4zm-23.5 7.7c-.2-.5-.2-1.3-.2-1.9.1-1.4.6-3.1 1.4-3.9 1.1-1.1 3.2-.9 5-.3.1-.6.2-1.1.2-1.7-2.8-.5-5.5-.2-6.9 1.3s-2.3 4.8-1.7 6.9c.8 2.5 4.1 2.6 6.9 1.7.1-.5.2-1 .3-1.6-1.5.8-4.4 1.2-5-.5zm-1.2-7.8c-1.9-.8-3.3.5-4 1.7.2-.5.2-1.1.3-1.7h-1.9c-.5 3.5-1.1 6.8-1.8 10.1h2.1c.3-2 .4-4.6 1.1-6.5.5-1.5 1.9-2.8 3.8-2.1.2-.5.3-1 .4-1.5zm-33.8-4.1c-.3 1.9-.6 3.8-1 5.7-2.2 0-4.4.1-6.5 0 .4-1.9.7-3.8 1.1-5.7h-2.3c-.8 4.8-1.6 9.6-2.5 14.2h2.4c.4-2.4.7-4.8 1.2-7.1 2-.1 4.5-.1 6.4 0-.4 2.4-.9 4.6-1.3 7h2.4c.8-4.8 1.6-9.6 2.5-14.2l-2.4.1zm6 2.2c.4-.3 1-1.6.3-2.1-.2-.2-.5-.2-1-.1-.4.1-.7.2-.8.4-.3.4-.5 1.4-.1 1.9.4.3 1.3 0 1.6-.1z" class="st3"/></g><g id="_x3C_Group_x3E_"><g id="Layer_1-2"><path d="M165.9 51.8V49c.1-.9-.6-1.7-1.5-1.8h-.2c-.6 0-1.2.3-1.6.8-.3-.5-.9-.8-1.5-.8-.5 0-1 .2-1.3.7v-.5h-1v4.4h1v-2.4c-.1-.6.3-1.1.9-1.2h.2c.6 0 1 .4 1 1.2v2.5h1v-2.5c-.1-.6.3-1.1.9-1.2h.2c.7 0 1 .4 1 1.2v2.5l.9-.1zm14.4-4.5h-1.6V46h-1v1.3h-.9v.9h.9v2c0 1 .4 1.6 1.5 1.6.4 0 .8-.1 1.2-.3l-.3-.8c-.3.2-.6.2-.9.3-.5 0-.6-.3-.6-.7v-2h1.6l.1-1zm8.3-.1c-.5 0-.9.2-1.2.6v-.5h-1v4.4h1v-2.5c0-.7.3-1.1.9-1.1.2 0 .4 0 .6.1l.3-.9c-.2-.1-.4-.1-.6-.1zm-12.5.5c-.5-.3-1.2-.5-1.8-.5-1.1 0-1.9.5-1.9 1.4 0 .7.5 1.2 1.5 1.3l.5.1c.5.1.8.2.8.5s-.4.5-1 .5c-.5 0-1-.1-1.5-.5l-.5.8c.6.4 1.2.6 1.9.6 1.3 0 2-.6 2-1.4s-.6-1.2-1.5-1.3l-.5-.1c-.4-.1-.8-.1-.8-.4 0-.3.3-.5.8-.5s1 .1 1.4.4l.6-.9zm25.9-.5c-.5 0-.9.2-1.2.6v-.5h-1v4.4h1v-2.5c0-.7.3-1.1.9-1.1.2 0 .4 0 .6.1l.3-.9c-.2-.1-.4-.1-.6-.1zm-12.5 2.3c0 1.2.9 2.3 2.2 2.3h.2c.6 0 1.1-.2 1.6-.5l-.5-.8c-.3.3-.7.4-1.2.4-.8-.1-1.4-.7-1.3-1.5.1-.7.6-1.2 1.3-1.3.4 0 .8.1 1.2.4l.5-.8c-.4-.4-1-.6-1.6-.5-1.2-.1-2.3.9-2.4 2.1v.2zm9.1 0v-2.2h-1v.5c-.3-.4-.8-.7-1.4-.6-1.3 0-2.3 1-2.3 2.3s1 2.3 2.3 2.3c.5 0 1.1-.2 1.4-.6v.5h1v-2.2zm-3.6 0c0-.7.7-1.3 1.4-1.3s1.3.7 1.3 1.4-.6 1.3-1.3 1.3-1.3-.6-1.3-1.3c-.1 0-.1 0-.1-.1zm-11.7-2.3c-1.3 0-2.3 1.1-2.3 2.4 0 1.3 1.1 2.3 2.4 2.3.7 0 1.3-.2 1.8-.6l-.5-.7c-.4.3-.8.5-1.3.5-.7.1-1.3-.4-1.3-1.1h3.3v-.4c.1-1.4-.8-2.4-2.1-2.4zm0 .9c.6 0 1.1.5 1.1 1.1h-2.3c.1-.7.6-1.1 1.2-1.1zm24.2 1.5v-4h-.9v2.3c-.3-.4-.8-.7-1.4-.6-1.3 0-2.3 1-2.3 2.3s1 2.3 2.3 2.3c.5 0 1.1-.2 1.4-.6v.5h.9v-2.2zm1.6 1.5h.2c.1 0 .1.1.1.1l.1.1v.3c0 .1-.1.1-.1.1l-.1.1h-.2c-.2 0-.3-.1-.4-.3v-.3c0-.1.1-.1.1-.1l.1-.1c.1.1.2.1.2.1zm0 .8h.1s.1 0 .1-.1c.1-.1.1-.3 0-.5l-.1-.1h-.2s-.1 0-.1.1c-.1.1-.1.3 0 .5l.1.1h.1zm0-.5h.1v.2h-.1l.1.2h-.1l-.1-.2v.2h-.1v-.4h.2zm-.1 0l.1.1h0l-.1-.1zm-5.1-1.8c0-.7.7-1.3 1.4-1.3s1.3.7 1.3 1.4-.6 1.3-1.3 1.3-1.3-.6-1.3-1.3l-.1-.1zm-32.5 0v-2.2h-1v.5c-.3-.4-.8-.7-1.4-.6-1.3 0-2.3 1-2.3 2.3s1 2.3 2.3 2.3c.5 0 1.1-.2 1.4-.6v.5h1v-2.2zm-3.6 0c0-.7.7-1.3 1.4-1.3s1.3.7 1.3 1.4-.6 1.3-1.3 1.3-1.3-.6-1.4-1.3v-.1z" class="st3"/><g id="_Group_"><path fill="#ff5f00" d="M175.8 13.6h14.6v26.2h-14.6z"/><path id="_Path_" fill="#eb001b" d="M176.7 26.7c0-5.1 2.3-10 6.4-13.1-7.2-5.7-17.7-4.4-23.4 2.8s-4.4 17.7 2.8 23.4c6.1 4.8 14.6 4.8 20.6 0-4-3.2-6.4-8-6.4-13.1z"/><path d="M210.1 26.7c0 9.2-7.5 16.7-16.7 16.7-3.7 0-7.4-1.3-10.3-3.6 7.2-5.7 8.5-16.2 2.8-23.4-.8-1-1.8-2-2.8-2.8 7.2-5.7 17.7-4.4 23.4 2.8 2.4 2.9 3.6 6.5 3.6 10.3zM208.5 37v-.5h.2v-.1h-.6v.1h.2l.2.5zm1.1 0v-.6h-.2l-.2.5-.2-.5h-.1v.6h.1v-.5l.2.4h.1l.2-.4.1.5z" class="st7"/></g></g></g><g><path d="M10 10h66.1v42H10z" class="st3"/><path fill="#f7b600" d="M11.1 45.2H75v5.7H11.1z"/><path d="M11.1 11.1H75v5.7H11.1zM36.7 23.1l-6.6 15.8h-4.3l-3.2-12.6c-.2-.8-.4-1.1-1-1.4-1-.5-2.6-1-4-1.3l.1-.5h6.9c.9 0 1.7.6 1.9 1.6l1.7 9.1 4.2-10.7h4.3zm16.9 10.7c0-4.2-5.7-4.4-5.7-6.2 0-.6.6-1.2 1.7-1.3.6-.1 2.2-.1 4 .7l.7-3.3c-1-.4-2.2-.7-3.8-.7-4 0-6.9 2.1-6.9 5.2 0 2.3 2 3.5 3.6 4.3s2.1 1.3 2.1 2c0 1.1-1.3 1.5-2.4 1.5-2.1 0-3.2-.6-4.2-1l-.7 3.5c1 .4 2.7.8 4.5.8 4.2-.2 7-2.3 7.1-5.5m10.6 5.1H68l-3.3-15.8h-3.5c-.8 0-1.4.5-1.7 1.2l-6.1 14.6h4.3l.8-2.4h5.2l.5 2.4zm-4.6-5.6l2.1-5.9 1.2 5.9h-3.3zM42.5 23.1l-3.4 15.8H35l3.4-15.8h4.1z" class="st9"/></g><g><path d="M290.1 10h42v41.9h-42z" class="st3"/><path d="M326.6 44.9c-.2-.2-.4-.5-.6-.7-.3-.4-.7-.7-1-1.1l-.6-.6c-.3.3-.5.6-.8.9-.2.3-.5.5-.7.8-.3.4-.7.8-1.1 1.1h-16.7V31.9h-5.4c.2-.4.4-.8.5-1.2l.6-1.5c.2-.5.4-.9.6-1.4s.5-1 .7-1.6l.6-1.5.9-2.1c.2-.5.4-1 .7-1.5l.9-2.1c.2-.4.3-.8.5-1.2 0-.1.1-.1.1-.2.1-.3.3-.6.4-.9h6.4c.2.5.5 1 .7 1.5.3.6.6 1.3.9 2l.1.1c0 .3.2.5.3.7.1.3.2.5.4.7v-5h8c.5 1.3.9 2.6 1.4 3.9.5-1.3.9-2.6 1.4-3.9h6.1V9.9h-42v42c1.7.1 41.6 0 42 0v-6.6h-5.1c.1-.1-.1-.3-.2-.4z" class="st10"/><path d="M332.1 30.2V18.5h-4.9c-.2.5-.3 1-.5 1.5l-.3.9c-.1.4-.3.7-.4 1.1-.2.6-.5 1.2-.6 1.8-.2.2-.2.5-.3.8-.1.3-.2.5-.3.8 0 .1-.1.2-.2.4 0-.1-.1-.2-.1-.3-.1-.3-.2-.6-.4-.9-.1-.2-.1-.5-.2-.7-.2-.5-.3-1-.5-1.5-.1-.3-.2-.6-.3-.8-.1-.2-.2-.5-.3-.8-.1-.2-.2-.5-.3-.8-.2-.5-.3-.9-.5-1.4h-5v11.7c-.3-.6-.5-1-.7-1.5l-.3-.6c-.1-.3-.3-.6-.4-.9s-.3-.6-.4-1c-.2-.4-.4-.8-.5-1.1-.1-.3-.3-.6-.4-.9s-.2-.6-.4-.9c-.2-.3-.4-.6-.5-1-.2-.6-.5-1.1-.7-1.6-.2-.4-.3-.8-.5-1.2-.1-.3-.3-.6-.4-.9h-4.1c-.1.1-.1.2-.2.3-.3.6-.5 1.2-.8 1.8-.2.5-.4 1-.7 1.5-.3.6-.5 1.2-.8 1.8-.1.3-.3.6-.4.9s-.3.5-.4.9c-.1.3-.2.6-.4.8-.2.4-.3.8-.5 1.1 0 .3-.3.6-.3.9-.1.3-.2.6-.4.9-.1.3-.2.5-.4.8h3.5c.4-.8.6-1.6 1-2.3h5.4c.3.8.7 1.6 1 2.3h6.8v-8s.1 0 .1.1c.2.4.3.9.5 1.3.2.5.3.9.5 1.4s.4 1.1.6 1.6c.1.2.2.5.3.8.2.6.4 1.1.6 1.7.1.4.3.8.4 1.2h2.9v-.2c.3-.8.5-1.6.9-2.3 0-.4.2-.7.3-1 .1-.4.3-.7.4-1.1.2-.5.4-.9.5-1.4.2-.7.5-1.3.8-2v8c1.1-.3 2.1-.3 3.2-.3zM308 25.3c.5-1.3 1-2.5 1.6-3.8.1.1.2.2.2.3.1.4.3.8.5 1.2.1.3.3.6.4.9s.3.6.3.9c0 .2.2.3.3.5H308zM327.9 31.9c-.1.2-.2.4-.4.5-.4.4-.8.8-1.1 1.2-.4.5-.9 1-1.4 1.5-.1.2-.3.3-.4.5-.3-.4-.7-.7-.9-1l-.9-.9c-.4-.5-.9-1-1.4-1.5-.1-.1-.2-.2-.2-.3H307v11.7h14.1c.3-.4.7-.8 1-1.2l1.5-1.5s.1-.1.1-.2c.3-.3.5-.6.9-.9.2.3.4.5.7.8.5.5.9 1 1.4 1.5l.1.1c.1.3.4.5.6.7s.4.5.6.7h4.2c-.4-.5-.9-.9-1.3-1.4-.5-.6-1.1-1.1-1.6-1.7-.8-.8-1.6-1.6-2.4-2.5l-.1-.1c-.1-.1-.1-.3-.2-.4l1.2-1.2c.8-.8 1.6-1.6 2.4-2.5l.2-.2c.6-.6 1.2-1.2 1.8-1.9-1.5.2-2.9.2-4.3.2zm-5.9 6.4c-.8.8-1.6 1.6-2.4 2.5-.5.5-1 1-1.5 1.6-.4.4-.8.8-1.2 1.3v-2.6h-6.7v-1.8h6.6v-2.7h-6.6v-1.7h6.8v-2.8c.3.3.5.5.7.8.1.2.3.3.4.4.7.8 1.5 1.5 2.2 2.3.4.5.9.9 1.3 1.4.3.3.5.6.8.9-.2 0-.3.2-.4.4z" class="st10"/><path d="M330.4 36.1c-.3.4-.7.7-1.1 1.1-.2.2-.4.4-.5.6.4.5.8.9 1.2 1.3.2.2.5.4.6.7.4.5.9.9 1.3 1.4v-6.8c-.1.1-.1.2-.2.2-.3.5-.8.9-1.3 1.5z" class="st10"/><path d="M310.6 23.8c-.1-.3-.3-.6-.4-.9-.1-.4-.4-.8-.5-1.2 0-.1-.1-.1-.2-.3-.6 1.3-1.1 2.6-1.6 3.8h3.2c-.1-.2-.2-.4-.3-.5.1-.3-.1-.6-.2-.9zM320.2 35.4c-.7-.8-1.5-1.5-2.2-2.3l-.4-.4c-.2-.3-.5-.5-.7-.8v2.8h-6.8v1.7h6.6v2.7h-6.6v1.8h6.7v2.6c.4-.4.8-.8 1.2-1.3.5-.6 1-1.1 1.5-1.6.8-.8 1.6-1.6 2.4-2.5.2-.2.3-.4.4-.5-.3-.3-.5-.6-.8-.9-.4-.3-.9-.8-1.3-1.3z" class="st11"/></g></svg>