<?xml version="1.0"?>
<svg xmlns="http://www.w3.org/2000/svg" xmlns:xlink="http://www.w3.org/1999/xlink" version="1.1" id="Capa_1" x="0px" y="0px" viewBox="0 0 512 512" style="enable-background:new 0 0 512 512;" xml:space="preserve" width="512px" height="512px" class=""><g><g>
	<g>
		<path d="M379.721,281.694c-63.495,0-115.153,51.658-115.153,115.153S316.226,512,379.721,512s115.153-51.658,115.153-115.153    S443.217,281.694,379.721,281.694z M366.27,445.1l-43.331-42.893l21.133-21.348l22.03,21.808l49.183-49.455l21.299,21.182    L366.27,445.1z" data-original="#000000" class="active-path" fill="#000000"/>
	</g>
</g><g>
	<g>
		<path d="M238.534,0L17.126,127.83v255.66l221.408,127.83l32.238-18.612c-6.645-7.542-12.52-15.777-17.502-24.582l-14.736,8.507    l-15.02-8.672v-203.63L47.166,162.517v-17.344l15.02-8.672l176.348,101.815l73.154-42.236L135.34,94.266l30.04-17.343    l176.348,101.814l73.154-42.236l15.02,8.672v17.344L253.554,264.331v60.729c25.025-43.81,72.203-73.406,126.168-73.406    c29.636,0,57.222,8.933,80.221,24.236V127.83L238.534,0z" data-original="#000000" class="active-path" fill="#000000"/>
	</g>
</g></g> </svg>
