<?xml version="1.0" encoding="utf-8"?>
<!-- Generator: Adobe Illustrator 24.0.1, SVG Export Plug-In . SVG Version: 6.00 Build 0)  -->
<svg version="1.1" id="Layer_1" xmlns="http://www.w3.org/2000/svg" xmlns:xlink="http://www.w3.org/1999/xlink" x="0px" y="0px"
	 viewBox="0 0 690 178" style="enable-background:new 0 0 690 178;" xml:space="preserve">
<style type="text/css">
	.st0{fill:#FFFFFF;}
</style>
<g>
	<path class="st0" d="M91,0c5.35,0.96,10.75,1.68,16.03,2.91c39.75,9.23,67.95,44.75,67.97,85.47
		c0.02,45.03-30.38,80.89-74.79,88.21c-3.06,0.51-6.14,0.95-9.21,1.42c-2.33,0-4.67,0-7,0c-0.91-0.28-1.82-0.75-2.74-0.81
		c-37.32-2.06-69.16-28.64-78.83-66.16C1.58,107.7,0.81,104.34,0,101c0-7.67,0-15.33,0-23c0.3-0.74,0.75-1.46,0.87-2.23
		C6.63,39.18,32.82,11,68.98,2.67C73.93,1.53,78.99,0.88,84,0C86.33,0,88.67,0,91,0z M114.9,152.24
		c-17.68-7.86-27.89-20.94-26.96-40.77c0.93-19.74,12.32-31.78,30.63-37.88c-13.81-19.05-50.4-31.34-79.73-7.42
		c-25.56,20.84-28.22,60.25-5.73,84.08C55.44,173.91,94.26,174.94,114.9,152.24z M156.45,84.36c4.52-25.08-9.52-53.6-32.97-68
		C99.29,1.51,68.77,3.06,46.06,20.09C24.34,36.38,14.83,64.5,18.73,81.87c1.18-1.89,2.19-3.55,3.25-5.19
		c14.03-21.6,34.15-30.86,59.54-29.08c16.83,1.18,30.4,8.88,41.46,21.43c1.42,1.61,3.55,3.57,5.42,3.65
		C139.02,73.12,148.16,76.84,156.45,84.36z M127.93,78.83c-19.23,0.02-34.36,15.29-34.41,34.72c-0.05,19.12,15.45,34.62,34.6,34.61
		c19.12-0.01,34.4-15.48,34.37-34.79C162.46,94.05,147.22,78.81,127.93,78.83z"/>
	<path class="st0" d="M690,94c-1.28,3.2-2.36,6.49-3.86,9.58c-6.61,13.54-22.16,20.79-36.76,17.27c-8.84-2.13-14.38-8.7-14.87-17.63
		c-1.14-20.99,13.7-36.56,34.69-36.19c9.83,0.18,17.2,4.36,20.8,13.97C690,85.33,690,89.67,690,94z M648.94,100.24
		c1.27,3.1,1.91,6.74,3.96,9.18c3.22,3.83,9.53,3,13.73-1.25c5.36-5.43,7.91-12.15,8.33-19.69c0.31-5.47-1.61-9.03-5.48-10.73
		c-4.14-1.82-8.87-0.57-12.51,3.46C652.19,86.49,650.32,92.92,648.94,100.24z"/>
	<path class="st0" d="M355.73,115.13c-4.65,1.76-9.1,4.22-13.83,5.09c-12.9,2.38-21.34-6.17-19.57-19.21
		c2.26-16.6,15.15-29.74,32.33-33.03c8.49-1.63,16.79-1.06,25.13,1.44c0,1.27,0.18,2.28-0.03,3.2
		c-3.52,15.56-7.09,31.11-10.66,46.66c-0.37,1.62-0.85,3.21-1.36,4.79c-3.76,11.66-11.83,18.51-23.92,19.53
		c-7.04,0.59-14.26-0.15-21.33-0.92c-5.05-0.56-5.37-1.65-4.12-6.75c0.08-0.32,0.19-0.64,0.28-0.96c1.18-4.01,1.79-4.42,5.58-2.7
		c5.26,2.38,10.73,2.33,16.16,1.46c5.77-0.92,10.12-4.25,12.43-9.71C354.09,121.01,354.87,117.79,355.73,115.13z M364.47,78.32
		c-4.5-2.29-8.03-1.22-11.28,0.39c-9.99,4.94-15,13.16-15.35,24.26c-0.1,3.05-0.07,6.2,3.07,7.85c3.29,1.73,6.89,1.04,9.32-1.26
		c3.05-2.89,6.1-6.32,7.67-10.12C360.65,92.75,362.27,85.6,364.47,78.32z"/>
	<path class="st0" d="M478.9,140.98c0.21-1.31,0.39-2.75,0.69-4.16c1.3-6.1,1.33-5.76,7.46-4.03c12.78,3.61,27.86,1.62,29.71-19.19
		c-5.21,5.09-11.1,7.14-17.81,6.92c-9.75-0.31-15.01-5.6-15.11-15.33c-0.18-18.33,12.85-33.89,32-36.95
		c6.92-1.11,14.21-0.38,21.29,0.07c4.22,0.27,4.71,1.42,3.75,5.67c-3.58,15.71-6.97,31.47-10.96,47.08
		c-3.96,15.48-13.03,22.35-29.08,23.05C491.85,144.51,485.35,143.62,478.9,140.98z M525.54,77.26c-3.02,0-4.85-0.3-6.55,0.05
		c-14.92,3.06-20.84,18.57-19.84,28.91c0.32,3.35,2.66,4.94,5.66,5.34c4.18,0.56,7.39-1.65,9.92-4.62
		C521.81,98.59,523,88.15,525.54,77.26z"/>
	<path class="st0" d="M204.7,120.6c0.49-2.97,0.78-5.22,1.24-7.43c4.04-19.34,8.14-38.67,12.14-58.02c0.6-2.9,1.87-4.27,5.02-4.2
		c7.65,0.16,15.3,0.03,22.95,0.06c8.52,0.03,16.13,2.3,19.61,10.86c3.49,8.57,1.52,16.72-4.3,23.77c-5.21,6.31-12.39,8.7-20.3,9.17
		c-3.81,0.23-7.66,0.39-11.46,0.13c-3.67-0.25-4.98,1.43-5.53,4.75c-0.89,5.4-2.09,10.76-3.17,16.13c-0.95,4.69-1.45,5-6.33,4.82
		C211.51,120.51,208.43,120.6,204.7,120.6z M227.46,84.02c6.03,0.88,11.11,0.55,16-1.23c5.63-2.05,8.78-7.64,7.89-13.49
		c-0.7-4.54-4.52-7.42-10.68-7.87c-1.97-0.14-4.03-0.22-5.93,0.22c-1.15,0.27-2.71,1.42-2.97,2.46
		C230.19,70.52,228.93,77.02,227.46,84.02z"/>
	<path class="st0" d="M417.22,49.46c4.58,0.76,9.15,1.55,13.73,2.26c2.98,0.46,4.06,1.98,2.97,4.88c-0.29,0.78-0.5,1.59-0.75,2.38
		c-1.47,4.71-2.17,5.06-6.74,3.34c-5.67-2.14-11.42-2.16-17.12-0.34c-1.85,0.59-3.68,1.65-5.15,2.92c-3.8,3.27-3.58,7.55,0.44,10.54
		c1.45,1.08,3.14,1.85,4.76,2.7c3.1,1.61,6.31,3.03,9.33,4.77c12.09,7,13.59,21.06,3.35,30.57c-6.35,5.9-14.25,8.01-22.5,8.19
		c-6.26,0.14-12.59-0.85-18.83-1.75c-3.72-0.54-4.03-1.5-3.09-5.15c0.25-0.97,0.45-1.95,0.76-2.9c1.37-4.31,2.1-4.56,6.49-2.89
		c6.07,2.31,12.34,2.93,18.58,0.97c2.31-0.73,4.65-1.99,6.42-3.61c3.58-3.28,3.38-8.18-0.26-11.4c-1.47-1.3-3.28-2.26-5.03-3.2
		c-3.22-1.73-6.61-3.17-9.76-5.03c-11.76-6.94-12.57-21.36-1.75-29.86C398.73,52.4,407.11,50.01,417.22,49.46z"/>
	<path class="st0" d="M312.57,120.27c-4.78,0-9.33,0-14.28,0c0.24-2.81,0.44-5.22,0.71-8.38c-1.7,1.58-2.75,2.89-4.09,3.74
		c-3.05,1.93-6.04,4.37-9.41,5.32c-12.56,3.51-21.95-4.41-21.14-17.41c1.24-20.3,17.64-35.94,38.52-36.46
		c4.79-0.12,9.62,0.42,14.4,0.99c4.86,0.58,5.35,1.48,4.33,6.18c-2.3,10.55-4.69,21.08-6.87,31.66
		C313.81,110.44,313.34,115.07,312.57,120.27z M279.96,100.47c-0.18,7.89,1.56,11.05,5.87,11.02c2.41-0.01,5.35-1.12,7.14-2.74
		c8.5-7.75,10.87-18.27,12.15-29.13c0.24-2.04-1.06-3.21-3.07-2.87c-2.27,0.38-4.64,0.79-6.68,1.78
		C285.46,83.31,280.73,91.57,279.96,100.47z"/>
	<path class="st0" d="M597.14,68.38c-0.17,1.84-0.18,3.46-0.49,5.01c-2.88,14.35-5.86,28.68-8.7,43.04
		c-0.53,2.67-1.57,4.23-4.55,4.09c-2.94-0.13-5.89-0.03-9.13-0.03c0-2.34,0-4.26,0-6.93c-1.52,1.21-2.52,1.95-3.46,2.77
		c-5.56,4.86-11.98,6.25-19.09,4.71c-5.11-1.11-8.5-4.26-8.75-9.52c-0.24-5.08,0.34-10.28,1.21-15.31c1.33-7.7,3.23-15.3,4.86-22.94
		c1.14-5.34,1.14-5.36,6.44-5.27c2.66,0.05,5.32,0.1,7.97,0.17c0.12,0,0.24,0.2,0.88,0.77c-0.17,1.35-0.28,3.12-0.63,4.84
		c-1.79,8.63-3.67,17.24-5.47,25.87c-0.3,1.46-0.45,2.96-0.55,4.46c-0.4,6.04,4.02,9.27,9.74,7.08c4.77-1.83,7.38-5.66,8.54-10.37
		c1.84-7.42,3.44-14.91,4.99-22.4c2.71-13.09,0.83-9.88,12.8-10.39C594.7,67.98,595.67,68.22,597.14,68.38z"/>
	<path class="st0" d="M473.59,108.97c1.5,8.64,1.29,8.89-6.27,11.13c-6.53,1.93-13.07,2.16-19.75,0.92
		c-10.08-1.87-15.4-7.57-15.33-17.83C432.42,79.85,451,66,468.61,66.98c8.26,0.46,14.32,4.51,15.55,10.8
		c1.32,6.71-2.48,12.86-10.25,16.38c-6.95,3.15-14.38,3.95-21.89,4.36c-4.42,0.24-5.52,1.61-4.93,5.92c0.65,4.74,3.98,8.2,9.17,8.22
		c4.24,0.01,8.51-1.06,12.72-1.86C470.56,110.5,472.02,109.61,473.59,108.97z M449.79,89.84c5.63,0.84,10.68,0.11,15.42-2.06
		c1.87-0.86,3.72-2.36,4.86-4.05c2.47-3.68,0.45-7.6-3.94-7.79c-1.91-0.08-4.01,0.34-5.77,1.11
		C454.84,79.48,451.89,84.13,449.79,89.84z"/>
	<path class="st0" d="M619.77,68.17c-0.3,2.88-0.52,4.95-0.73,7.02c0.35,0.29,0.7,0.59,1.05,0.88c1.17-1.5,2.19-3.17,3.55-4.47
		c3.4-3.24,7.51-4.76,12.25-4.61c2.46,0.08,3.27,1.2,2.67,3.52c-0.5,1.93-1.03,3.86-1.39,5.82c-0.56,3.05-1.72,4.72-5.38,4.06
		c-3.86-0.71-7.43,1.09-9.7,4c-2.5,3.2-4.77,6.88-5.97,10.72c-1.88,5.99-2.97,12.26-4.02,18.47c-1.13,6.73-1.92,7.6-8.54,7.29
		c-7.93-0.37-7.91-0.37-6.29-8.12c2.79-13.33,5.68-26.64,8.27-40.01c0.66-3.42,1.95-4.97,5.54-4.62
		C613.8,68.38,616.57,68.17,619.77,68.17z"/>
</g>
</svg>
