<svg id="Camada_1" data-name="Camada 1" xmlns="http://www.w3.org/2000/svg" viewBox="0 0 512 512"><defs><style>.cls-1{fill:#3d3d3d;}.cls-2{fill:#232323;}</style></defs><title>placeholder-dark</title><rect class="cls-1" width="512" height="512"/><path class="cls-2" d="M232.9,258.8h84.8l-10.8,47.1H235.3c-4.8,0-9.1-.1-13.3-.5l-8.4,40.2c4.3.2,8.7.7,13.3.7H363.4l27.1-127.7H241.1l-8.2,40.2Z"/><path class="cls-2" d="M272.9,131.1c-22.3,0-42.7,1-61.2,4.8s-34.9,9.7-49,18.5A118.46,118.46,0,0,0,127,188.9c-9.7,14.3-16.6,31.8-21,52.7-4.2,19.9-4.2,36.3,0,49.6a62.55,62.55,0,0,0,22.7,32c7.9,5.9,17.3,10.4,28.2,13.8l21.5-100.6.1.1c3-13.2,7-24.2,12.3-32.9,5.6-9.3,12.2-16.7,19.7-22.1s15.9-10.2,25.1-12.4,18.9-4.2,29.2-4.2H401.3l7.8-33.6-136.2-.2Z"/></svg>