<?xml version="1.0" encoding="utf-8"?>
<!-- Generator: Adobe Illustrator 24.0.1, SVG Export Plug-In . SVG Version: 6.00 Build 0)  -->
<svg version="1.1" id="Camada_1" xmlns="http://www.w3.org/2000/svg" xmlns:xlink="http://www.w3.org/1999/xlink" x="0px" y="0px"
	 viewBox="0 0 512 512" style="enable-background:new 0 0 512 512;" xml:space="preserve">
<style type="text/css">
	.st0{fill:#F9F9F9;}
	.st1{fill:#E5E5E5;}
</style>
<g>
	<rect class="st0" width="512" height="512"/>
	<g>
		<path class="st1" d="M232.9,258.8h84.8l-10.8,47.1h-71.6c-4.8,0-9.1-0.1-13.3-0.5l-8.4,40.2c4.3,0.2,8.7,0.7,13.3,0.7h136.5
			l27.1-127.7H241.1L232.9,258.8L232.9,258.8z"/>
		<path class="st1" d="M272.9,131.1c-22.3,0-42.7,1-61.2,4.8s-34.9,9.7-49,18.5c-14.1,8.8-26,20.2-35.7,34.5s-16.6,31.8-21,52.7
			c-4.2,19.9-4.2,36.3,0,49.6c4.2,13.2,11.8,23.9,22.7,32c7.9,5.9,17.3,10.4,28.2,13.8l21.5-100.6l0.1,0.1c3-13.2,7-24.2,12.3-32.9
			c5.6-9.3,12.2-16.7,19.7-22.1c7.5-5.4,15.9-10.2,25.1-12.4c9.2-2.1,18.9-4.2,29.2-4.2h136.5l7.8-33.6L272.9,131.1L272.9,131.1z"/>
	</g>
</g>
</svg>
